<svg width="124" height="49" viewBox="0 0 124 49" fill="none" xmlns="http://www.w3.org/2000/svg">
<g clip-path="url(#clip0_321_531)">
<path d="M27.9737 1.19204C27.7926 1.20053 27.2379 1.12695 27.0625 1.07601C26.7059 0.971296 26.0917 0.812811 26.0691 0.727909C26.3493 0.549614 28.1209 0.631687 28.619 1.09299C28.2313 1.16374 28.4152 1.17506 27.9737 1.19204Z" fill="white"/>
<path d="M30.9485 13.3077C30.3711 13.319 29.8985 12.8549 29.89 12.2662C29.8815 11.6719 30.3258 11.1993 30.9088 11.1908C31.489 11.1823 31.9616 11.6549 31.9701 12.2492C31.9786 12.8237 31.5201 13.2992 30.9485 13.3077Z" fill="white"/>
<path d="M29.245 13.5843C29.245 14.1334 28.8601 14.6541 28.3451 14.7984C27.7423 14.9654 27.1706 14.6201 27.0687 14.0258C26.9753 13.4909 27.2753 12.9277 27.7847 12.6815C28.5064 12.3334 29.2422 12.7891 29.245 13.5843Z" fill="white"/>
<path d="M34.7779 11.1595C34.7779 11.7369 34.5288 12.1501 34.1411 12.2802C33.7336 12.4161 33.244 12.2406 32.927 11.8303C32.5902 11.3944 32.4515 10.9048 32.5987 10.3699C32.7883 9.67092 33.5043 9.44168 34.1015 9.88317C34.5599 10.2228 34.7552 10.6897 34.7779 11.1595Z" fill="white"/>
<path d="M30.2841 9.68223C29.6276 9.6794 28.9993 9.21809 28.8267 8.61246C28.6427 7.97286 29.0785 7.40119 29.7691 7.37289C30.4228 7.34458 31.0992 7.78042 31.3171 8.36907C31.5747 9.06527 31.0879 9.68506 30.2841 9.68223Z" fill="white"/>
<path d="M37.2315 14.9349C37.2286 15.2547 37.1635 15.5349 36.9626 15.7755C36.6994 16.0924 36.3258 16.1292 35.9975 15.8717C35.4711 15.4585 35.324 14.4821 35.7089 13.9387C36.0032 13.5227 36.4871 13.4916 36.8381 13.868C37.1267 14.1793 37.2286 14.5529 37.2315 14.9349Z" fill="white"/>
<path d="M32.4766 15.9222C32.4766 15.642 32.5643 15.3873 32.7454 15.1666C33.1133 14.7138 33.7558 14.7109 34.1293 15.1609C34.4944 15.6024 34.4887 16.2873 34.1152 16.7231C33.7756 17.1193 33.2039 17.1448 32.8332 16.7741C32.5926 16.5363 32.4794 16.2505 32.4766 15.9222Z" fill="white"/>
<path d="M33.0089 6.4927C33.5297 6.49553 34.09 6.93986 34.1919 7.42663C34.2598 7.7436 34.0815 7.97566 33.7448 8.00962C33.5325 8.03226 33.3372 7.97849 33.1561 7.87095C32.825 7.67567 32.5731 7.42097 32.5109 7.03608C32.4599 6.70213 32.658 6.48987 33.0089 6.4927Z" fill="white"/>
<path d="M37.5092 10.0701C37.4866 10.4069 37.4413 10.738 37.0791 10.8823C36.7253 11.021 36.4253 10.8597 36.1791 10.6248C35.715 10.1833 35.4801 9.65123 35.565 9.02013C35.647 8.41732 36.1565 8.19941 36.6772 8.54468C37.2319 8.91541 37.4668 9.45313 37.5092 10.0701Z" fill="white"/>
<path d="M26.6611 11.4285C26.081 11.4256 25.5999 10.9757 25.6055 10.4408C25.6112 9.92854 26.0668 9.51818 26.6328 9.52101C27.23 9.52384 27.7252 9.97665 27.7252 10.5229C27.7224 11.0294 27.2498 11.4313 26.6611 11.4285Z" fill="white"/>
<path d="M25.2971 15.3113C24.717 15.3085 24.2358 14.8585 24.2415 14.3236C24.2472 13.8114 24.7028 13.401 25.2688 13.4038C25.866 13.4067 26.3612 13.8595 26.3612 14.4057C26.3584 14.9123 25.8858 15.3141 25.2971 15.3113Z" fill="white"/>
<path d="M31.6366 17.3768C31.6054 17.9399 31.3592 18.3871 30.8272 18.6446C30.4678 18.8201 30.0829 18.8314 29.7291 18.6022C29.3499 18.356 29.1914 17.9966 29.214 17.5692C29.2395 17.1164 29.4602 16.7541 29.8366 16.491C30.2159 16.2249 30.6347 16.1485 31.0621 16.3721C31.4753 16.5843 31.6111 16.9551 31.6366 17.3768Z" fill="white"/>
<path d="M34.124 20.6454C34.1014 21.0699 33.9146 21.4095 33.5127 21.602C33.241 21.735 32.9495 21.7435 32.6835 21.5708C32.3977 21.3841 32.276 21.1152 32.2958 20.7897C32.3156 20.4501 32.4826 20.1756 32.7656 19.9775C33.0514 19.7766 33.3655 19.72 33.691 19.8869C34.0023 20.0483 34.1042 20.3256 34.124 20.6454Z" fill="white"/>
<path d="M33.4245 27.2654C33.4047 27.6192 33.2519 27.8993 32.9179 28.0607C32.6915 28.171 32.4509 28.1767 32.2302 28.0352C31.9925 27.8795 31.8934 27.656 31.9076 27.3871C31.9246 27.1041 32.0632 26.8777 32.2981 26.7135C32.5358 26.5466 32.7962 26.4985 33.0651 26.64C33.3226 26.7701 33.4075 27.0022 33.4245 27.2654Z" fill="white"/>
<path d="M31.5095 25.5647C31.4896 25.9185 31.3368 26.1987 31.0029 26.36C30.7765 26.4704 30.5359 26.476 30.3152 26.3345C30.0774 26.1789 29.9784 25.9553 29.9925 25.6864C30.0095 25.4034 30.1482 25.177 30.3831 25.0129C30.6208 24.8459 30.8812 24.7978 31.15 24.9393C31.4076 25.0695 31.4953 25.3015 31.5095 25.5647Z" fill="white"/>
<path d="M30.1559 23.7447C30.1361 24.0984 29.9833 24.3786 29.6494 24.5399C29.4229 24.6503 29.1824 24.6559 28.9616 24.5144C28.7239 24.3588 28.6249 24.1352 28.639 23.8664C28.656 23.5833 28.7947 23.3569 29.0296 23.1928C29.2673 23.0258 29.5277 22.9777 29.7965 23.1192C30.0541 23.2494 30.1418 23.4815 30.1559 23.7447Z" fill="white"/>
<path d="M29.7851 5.71727C29.1455 5.65501 28.5795 5.39181 28.2059 4.8258C27.8465 4.28242 28.1154 3.80414 28.7833 3.79565C29.4342 3.78716 29.9946 4.00507 30.436 4.46921C30.6653 4.70976 30.8521 4.98428 30.6907 5.31823C30.5266 5.65784 30.1785 5.70029 29.7851 5.71727Z" fill="white"/>
<path d="M38.1006 12.3731C38.1062 12.1155 38.1374 11.8637 38.2676 11.6344C38.443 11.3259 38.7317 11.2693 39.0232 11.4844C39.1902 11.6061 39.309 11.7703 39.3939 11.9514C39.66 12.5231 39.7675 13.1089 39.5411 13.7145C39.3798 14.1447 39.0034 14.2324 38.6666 13.907C38.2279 13.4853 38.1232 12.9391 38.1006 12.3731Z" fill="white"/>
<path d="M35.2344 19.4091C35.2344 18.962 35.3532 18.5516 35.6532 18.1979C36.1202 17.646 36.8164 17.7394 37.0485 18.4101C37.2918 19.1205 37.173 19.794 36.6494 20.3629C36.256 20.793 35.7438 20.7251 35.4466 20.2327C35.291 19.978 35.2344 19.7006 35.2344 19.4091Z" fill="white"/>
<path d="M24.3663 11.6802C24.355 12.283 23.8116 12.7811 23.1861 12.767C22.5975 12.7528 22.1532 12.283 22.1673 11.6972C22.1815 11.1114 22.7107 10.6246 23.3135 10.6359C23.9106 10.6501 24.3776 11.1114 24.3663 11.6802Z" fill="white"/>
<path d="M39.7223 16.7295C39.7195 16.9899 39.6742 17.2729 39.5355 17.5333C39.4535 17.6889 39.3487 17.8417 39.1393 17.8389C38.9384 17.8361 38.828 17.6917 38.7573 17.5389C38.4856 16.9474 38.4856 16.3531 38.7771 15.7673C38.845 15.6286 38.9554 15.5041 39.1393 15.5013C39.3233 15.4984 39.428 15.6201 39.5072 15.7588C39.677 16.0531 39.7251 16.3729 39.7223 16.7295Z" fill="white"/>
<path d="M26.3303 7.1495C25.7502 7.14101 25.3313 6.93724 25.0115 6.56084C24.7568 6.26369 24.6662 5.91559 24.8247 5.54768C24.9832 5.17977 25.2973 4.99015 25.6992 4.9477C26.2369 4.8911 26.718 5.04109 27.1227 5.38353C27.4454 5.65805 27.6406 5.99483 27.5133 6.425C27.3831 6.86932 27.0152 7.04479 26.5822 7.12686C26.4775 7.14667 26.3728 7.14384 26.3303 7.1495Z" fill="white"/>
<path d="M35.1853 5.68898C35.1853 5.33522 35.4174 5.1541 35.7825 5.22485C36.4192 5.34937 37.1635 6.25217 37.1437 6.87761C37.1324 7.21722 36.8947 7.39268 36.5466 7.3191C35.9041 7.18326 35.1825 6.32009 35.1853 5.68898Z" fill="white"/>
<path d="M32.3411 2.93536C33.1929 2.95517 34.4297 3.87494 34.6702 4.66453C34.8202 5.15413 34.5599 5.45695 34.0278 5.42016C33.1844 5.3579 32.0241 4.49756 31.7609 3.73344C31.5883 3.23534 31.8147 2.92404 32.3411 2.93536Z" fill="white"/>
<path d="M33.6996 2.16255C33.793 2.18802 33.9515 2.21066 34.093 2.27009C35.1373 2.7031 36.0542 3.31156 36.7901 4.14926C36.9429 4.32473 37.2033 4.54264 37.0335 4.77471C36.8495 5.02942 36.541 4.85112 36.3118 4.76339C35.2618 4.36152 34.3704 3.7389 33.6232 2.92667C33.5213 2.8163 33.4336 2.68611 33.3657 2.55027C33.2298 2.28141 33.3289 2.14557 33.6996 2.16255Z" fill="white"/>
<path d="M29.0155 1.68709C29.8419 1.73803 30.6032 1.97009 31.2569 2.46536C31.4749 2.6295 31.7409 2.82194 31.6333 3.13325C31.523 3.44739 31.1947 3.44456 30.9117 3.44456C30.0655 3.44456 29.307 3.17853 28.6193 2.71723C28.5684 2.68327 28.5174 2.64365 28.475 2.6012C28.3024 2.42857 28.0788 2.25593 28.1863 1.98424C28.291 1.71822 28.5769 1.71256 28.8259 1.68709C28.8882 1.68143 28.9504 1.68709 29.0155 1.68709Z" fill="white"/>
<path d="M39.6262 8.02678C39.629 8.23903 39.5583 8.28714 39.3856 8.21073C39.2837 8.16545 39.1875 8.10319 39.1054 8.03244C38.4008 7.43529 37.8517 6.72777 37.4838 5.89856C37.4244 5.76272 37.314 5.58159 37.464 5.47122C37.6168 5.36085 37.7696 5.51933 37.8857 5.61273C38.6272 6.21836 39.1932 6.95135 39.5667 7.81452C39.5979 7.89376 39.612 7.97867 39.6262 8.02678Z" fill="white"/>
<path d="M24.3669 8.00955C24.3641 8.54727 23.8972 8.99159 23.3396 8.98593C22.7397 8.98027 22.2444 8.47651 22.25 7.87371C22.2557 7.27656 22.6548 6.84073 23.2038 6.8379C23.8038 6.83507 24.3698 7.40675 24.3669 8.00955Z" fill="white"/>
<path d="M39.1758 8.96891C39.1786 8.94061 39.1758 8.85854 39.1928 8.78213C39.2296 8.62647 39.3286 8.56987 39.4616 8.68308C39.5777 8.78213 39.6909 8.89533 39.7729 9.01985C40.3984 9.98774 40.8059 11.0377 40.987 12.1612C41.0182 12.348 41.0974 12.6282 40.8823 12.7074C40.6616 12.7867 40.5427 12.5235 40.4267 12.365C39.8437 11.5697 39.1899 9.80944 39.1758 8.96891Z" fill="white"/>
<path d="M19.5469 9.29741C19.5469 8.74272 19.9403 8.32953 20.4553 8.33802C21.0157 8.34651 21.5223 8.85026 21.5279 9.40779C21.5336 9.92286 21.1147 10.3361 20.5799 10.3389C20.011 10.3417 19.5469 9.87475 19.5469 9.29741Z" fill="white"/>
<path d="M19.4844 12.5323C19.4844 12.0909 19.7957 11.7597 20.2089 11.7682C20.656 11.7739 21.0607 12.1786 21.0636 12.6201C21.0692 13.0304 20.7325 13.3616 20.3079 13.3616C19.8523 13.3644 19.4816 12.9936 19.4844 12.5323Z" fill="white"/>
<path d="M21.8379 14.983C21.8379 14.5415 22.1492 14.2104 22.5624 14.2189C23.0095 14.2246 23.4142 14.6293 23.4171 15.0708C23.4227 15.4811 23.086 15.8122 22.6614 15.8122C22.2058 15.8151 21.8379 15.4443 21.8379 14.983Z" fill="white"/>
<path d="M18.9072 14.7933C18.9072 14.3518 19.2186 14.0207 19.6317 14.0292C20.0789 14.0349 20.4836 14.4396 20.4864 14.8811C20.4921 15.2914 20.1553 15.6225 19.7308 15.6225C19.2752 15.6254 18.9044 15.2546 18.9072 14.7933Z" fill="white"/>
<path d="M15.5535 14.7933C15.5535 14.3518 15.8648 14.0207 16.278 14.0292C16.7251 14.0349 17.1298 14.4396 17.1326 14.8811C17.1383 15.2914 16.8015 15.6225 16.377 15.6225C15.9214 15.6254 15.5535 15.2546 15.5535 14.7933Z" fill="white"/>
<path d="M37.8623 21.0564C37.8765 20.4649 37.984 19.9753 38.233 19.5225C38.2925 19.4178 38.3604 19.3131 38.4396 19.2225C38.5698 19.0782 38.7142 18.9197 38.9434 18.9848C39.1613 19.047 39.2377 19.2423 39.2604 19.4348C39.3622 20.2498 39.15 20.9913 38.6349 21.6479C38.5359 21.7752 38.4113 21.9111 38.2189 21.8743C38.0123 21.8347 37.9557 21.6564 37.9217 21.4866C37.8878 21.3168 37.8736 21.1441 37.8623 21.0564Z" fill="white"/>
<path d="M25.9172 2.45986C26.37 2.48533 26.8709 2.60985 27.2898 2.94663C27.4765 3.09662 27.6435 3.28058 27.5643 3.54094C27.485 3.79848 27.253 3.88621 27.0096 3.923C26.3728 4.01923 25.8011 3.85791 25.3172 3.45321C25.1134 3.28341 24.904 3.07398 25.0172 2.77965C25.1276 2.49948 25.4162 2.49099 25.6766 2.46269C25.7332 2.4542 25.7842 2.45986 25.9172 2.45986Z" fill="white"/>
<path d="M36.3912 22.6492C36.3375 23.17 36.1846 23.6737 35.7177 24.036C35.3639 24.3105 35.0356 24.2143 34.8828 23.8067C34.679 23.2634 34.9281 22.4087 35.4092 22.0493C35.5903 21.9134 35.7941 21.7776 36.0403 21.9021C36.3459 22.0549 36.3742 22.3379 36.3912 22.6492Z" fill="white"/>
<path d="M41.3209 15.9396C41.3379 16.432 41.3323 16.9245 41.1511 17.3971C41.1002 17.5273 41.0549 17.7027 40.8879 17.6999C40.7153 17.6971 40.6757 17.516 40.6417 17.3858C40.3898 16.4066 40.3644 15.4217 40.6021 14.434C40.6078 14.4057 40.6191 14.3746 40.6332 14.3491C40.6898 14.2359 40.7068 14.0661 40.871 14.0633C41.0521 14.0604 41.0889 14.2359 41.137 14.3633C41.2445 14.6576 41.3011 14.9661 41.3181 15.2774C41.3323 15.4981 41.3209 15.7189 41.3209 15.9396Z" fill="white"/>
<path d="M32.0385 1.56569C32.3159 1.76379 32.664 1.85153 32.9272 2.06944C33.0291 2.15151 33.1847 2.23359 33.1253 2.38075C33.0659 2.52791 32.8904 2.49395 32.7602 2.48263C31.8999 2.39773 31.1188 2.06378 30.3377 1.73549C30.0773 1.62795 29.8311 1.49211 29.5849 1.35626C29.4717 1.294 29.3386 1.2374 29.3047 1.07043C29.4802 0.940243 29.6783 0.974203 29.8735 0.988354C30.5216 1.03929 31.1103 1.29966 31.7301 1.45249C31.7442 1.44966 31.7584 1.44683 31.7725 1.44117C31.8687 1.42985 31.9423 1.47513 32.0159 1.52607C32.0244 1.54022 32.0329 1.55437 32.0385 1.56569Z" fill="white"/>
<path d="M18.4062 10.2259C18.392 10.4749 18.3552 10.6928 18.2392 10.8909C17.9647 11.3607 17.3958 11.3805 17.093 10.9305C16.8355 10.5457 16.8609 9.957 17.1468 9.58909C17.4949 9.14477 18.0184 9.19288 18.2731 9.69381C18.3665 9.8721 18.3892 10.0617 18.4062 10.2259Z" fill="white"/>
<path d="M18.2616 12.8465C18.2475 13.0955 18.2107 13.3134 18.0946 13.5115C17.8201 13.9813 17.2513 14.0011 16.9485 13.5512C16.6909 13.1663 16.7164 12.5776 17.0022 12.2097C17.3503 11.7654 17.8739 11.8135 18.1286 12.3144C18.222 12.4955 18.2446 12.6823 18.2616 12.8465Z" fill="white"/>
<path d="M33.4599 24.3583C33.4627 24.913 33.041 25.4111 32.5542 25.4224C32.1608 25.4309 31.875 25.1167 31.875 24.6724C31.8722 24.1262 32.308 23.6366 32.8033 23.6309C33.1995 23.6253 33.457 23.9083 33.4599 24.3583Z" fill="white"/>
<path d="M32.0097 21.9568C32.0125 22.5115 31.5908 23.0096 31.104 23.0209C30.7107 23.0294 30.4248 22.7153 30.4248 22.271C30.422 21.7248 30.8578 21.2352 31.3531 21.2295C31.7521 21.2267 32.0068 21.5097 32.0097 21.9568Z" fill="white"/>
<path d="M30.037 20.5775C30.0398 21.1322 29.6182 21.6303 29.1314 21.6416C28.738 21.6501 28.4522 21.336 28.4522 20.8916C28.4493 20.3454 28.8852 19.8558 29.3804 19.8502C29.7795 19.8445 30.0342 20.1275 30.037 20.5775Z" fill="white"/>
<path d="M23.4146 3.67958C23.8137 3.70788 24.1788 3.8692 24.408 4.25409C24.6599 4.68143 24.425 5.12575 23.9184 5.19084C23.4288 5.2531 22.8033 4.86821 22.659 4.41823C22.5232 3.99372 22.843 3.6626 23.4146 3.67958Z" fill="white"/>
<path d="M19.6968 6.82679C19.6883 6.88622 19.6827 6.98528 19.6572 7.08433C19.561 7.44941 19.2582 7.69845 18.9299 7.68996C18.5874 7.68147 18.3412 7.43526 18.2648 7.03339C18.211 6.74189 18.2676 6.4702 18.4318 6.22399C18.7374 5.75985 19.2468 5.77117 19.544 6.23814C19.6487 6.40511 19.6883 6.58907 19.6968 6.82679Z" fill="white"/>
<path d="M15.8935 10.4461C15.8765 10.8848 15.7718 11.2442 15.5058 11.5499C15.3784 11.697 15.22 11.7961 15.0134 11.7565C14.787 11.714 14.6879 11.5385 14.6483 11.3461C14.5379 10.8367 14.6455 10.3669 14.9766 9.9537C15.1039 9.79522 15.2624 9.67636 15.4888 9.72164C15.7322 9.76975 15.8114 9.96219 15.8652 10.1603C15.8907 10.2678 15.8879 10.381 15.8935 10.4461Z" fill="white"/>
<path d="M15.1515 13.4513C15.1373 13.8334 15.0467 14.1504 14.8118 14.4164C14.6986 14.5437 14.56 14.6315 14.3817 14.5975C14.1836 14.5607 14.0987 14.4051 14.0619 14.2381C13.9657 13.7938 14.059 13.3834 14.3505 13.0212C14.4609 12.8825 14.5996 12.7806 14.7977 12.8174C15.01 12.8598 15.0779 13.0296 15.126 13.2023C15.1458 13.2957 15.143 13.3947 15.1515 13.4513Z" fill="white"/>
<path d="M22.0284 5.856C22.0255 6.26353 21.7255 6.58333 21.3463 6.58333C20.8992 6.58616 20.503 6.15033 20.503 5.65506C20.5001 5.23904 20.7718 4.94755 21.1539 4.95321C21.6208 4.96453 22.0312 5.38621 22.0284 5.856Z" fill="white"/>
<path d="M25.843 1.28265C26.409 1.31661 27.0316 1.39585 27.6118 1.65339C27.7618 1.72131 27.9486 1.79772 27.9259 1.98733C27.9005 2.18544 27.6967 2.20242 27.5326 2.21657C26.6552 2.29864 25.8543 2.06092 25.1015 1.65339C25.0308 1.61376 24.9544 1.55999 24.9685 1.4666C24.9827 1.36755 25.0789 1.3534 25.1581 1.33359C25.3591 1.27416 25.5685 1.28265 25.843 1.28265Z" fill="white"/>
<path d="M17.4217 7.21417C17.4047 7.5651 17.2859 7.89056 16.9746 8.12263C16.6548 8.35752 16.3095 8.25847 16.1595 7.90188C15.9897 7.50001 16.1737 6.87739 16.5359 6.61703C16.7085 6.4925 16.901 6.44722 17.0963 6.55194C17.3595 6.69061 17.4132 6.934 17.4217 7.21417Z" fill="white"/>
<path d="M39.8266 21.5602C39.5209 21.0253 40.0756 18.9565 40.5963 18.6792C40.9756 19.132 40.4181 21.2121 39.8266 21.5602Z" fill="white"/>
<path d="M13.748 10.4464C13.7169 10.837 13.6376 11.1992 13.3801 11.4992C13.281 11.6152 13.165 11.7284 12.981 11.686C12.7914 11.6407 12.715 11.4935 12.6924 11.3294C12.6244 10.8398 12.7518 10.3926 13.0574 9.99643C13.1508 9.87757 13.264 9.75022 13.448 9.7955C13.6404 9.84078 13.6914 10.0021 13.7253 10.1634C13.7423 10.2568 13.7423 10.3587 13.748 10.4464Z" fill="white"/>
<path d="M12.9438 13.3212C12.9127 13.7117 12.8334 14.074 12.5759 14.374C12.4768 14.49 12.3608 14.6032 12.1768 14.5607C11.9872 14.5155 11.9108 14.3683 11.8882 14.2042C11.8202 13.7146 11.9476 13.2674 12.2533 12.8712C12.3466 12.7523 12.4598 12.625 12.6438 12.6703C12.8362 12.7155 12.8872 12.8769 12.9211 13.0382C12.9381 13.1316 12.9353 13.2334 12.9438 13.3212Z" fill="white"/>
<path d="M15.27 7.2399C15.2389 7.63329 15.0974 8.02667 14.7918 8.35212C14.6842 8.46533 14.5512 8.56438 14.3757 8.50495C14.189 8.44269 14.1408 8.27571 14.1437 8.1144C14.1493 7.67857 14.305 7.28802 14.5908 6.94841C14.704 6.81539 14.837 6.67672 15.0408 6.74464C15.2587 6.82105 15.2672 7.0135 15.27 7.2399Z" fill="white"/>
<path d="M37.978 23.2753C37.8846 23.8017 37.661 24.3422 37.1912 24.7668C37.1318 24.8205 37.061 24.8828 36.9677 24.8375C36.8799 24.7951 36.8686 24.7045 36.8743 24.6281C36.9195 24.0224 37.1007 23.4649 37.5507 23.0149C37.6271 22.9385 37.7233 22.8564 37.8535 22.9074C37.944 22.9442 37.978 23.0347 37.978 23.2753Z" fill="white"/>
<path d="M12.0839 9.92285C12.0329 10.3898 11.8801 10.8426 11.5377 11.219C11.4415 11.3237 11.3282 11.4454 11.1641 11.3747C10.9971 11.3039 11.0141 11.1454 11.0396 11.0068C11.1245 10.5455 11.3028 10.1181 11.5801 9.73324C11.6594 9.62004 11.7584 9.47853 11.9311 9.53796C12.0952 9.59457 12.0782 9.75871 12.0839 9.92285Z" fill="white"/>
<path d="M12.6301 7.94761C12.7575 7.45235 13.015 6.99104 13.4791 6.6571C13.6772 6.51559 13.881 6.61747 13.8527 6.84954C13.7819 7.40706 13.5216 7.87969 13.049 8.22779C12.9612 8.29288 12.8537 8.30703 12.7546 8.25043C12.6499 8.191 12.6273 8.09194 12.6301 7.94761Z" fill="white"/>
<path d="M23.5681 1.57677C23.7803 1.6079 24.1341 1.55413 24.1794 1.8626C24.2246 2.18523 23.8709 2.25315 23.6162 2.32391C23.319 2.40598 23.0162 2.39749 22.7162 2.3041C22.5719 2.25881 22.4219 2.19938 22.4021 2.04373C22.3823 1.87392 22.5408 1.80883 22.6709 1.7494C22.9426 1.62771 23.2313 1.57394 23.5681 1.57677Z" fill="white"/>
<path d="M23.8457 0.784424C24.0579 0.792914 24.4117 0.778763 24.457 0.869326C24.5022 0.965548 24.1485 0.985359 23.8938 1.008C23.5966 1.03347 23.2938 1.03064 22.9938 1.00234C22.8495 0.988189 22.6995 0.971209 22.6797 0.923097C22.6599 0.872156 22.8183 0.852346 22.9485 0.835365C23.2202 0.798574 23.5089 0.784424 23.8457 0.784424Z" fill="white"/>
<path d="M18.8333 3.91169C18.8389 3.50133 19.1389 3.13625 19.4701 3.14191C19.7276 3.14757 19.9314 3.39379 19.9285 3.69378C19.9257 4.073 19.5861 4.45506 19.2606 4.44374C19.0003 4.43525 18.8305 4.223 18.8333 3.91169Z" fill="white"/>
<path d="M16.9229 4.93644C16.9257 4.63645 17.336 4.06761 17.6304 3.9544C17.8766 3.85818 18.0747 3.96855 18.1058 4.22043C18.1539 4.60815 17.6926 5.18266 17.2823 5.24492C17.0672 5.27605 16.9229 5.15436 16.9229 4.93644Z" fill="white"/>
<path d="M21.0804 3.19562C20.7238 3.19845 20.4153 2.94091 20.421 2.64375C20.4266 2.38339 20.6615 2.19094 20.9785 2.19094C21.3606 2.18811 21.7087 2.4315 21.7171 2.70885C21.7285 2.97487 21.4398 3.19279 21.0804 3.19562Z" fill="white"/>
<path d="M35.2032 25.8385C35.1635 26.1894 34.9966 26.5375 34.6739 26.812C34.5862 26.8856 34.49 26.9592 34.3626 26.9026C34.2438 26.8488 34.2098 26.7356 34.207 26.6253C34.1928 26.1894 34.3428 25.813 34.6994 25.53C34.7956 25.4536 34.9117 25.3885 35.0475 25.4479C35.1947 25.513 35.2032 25.646 35.2032 25.8385Z" fill="white"/>
<path d="M10.329 13.7433C10.3375 13.4405 10.3658 13.1405 10.5045 12.8631C10.5554 12.7613 10.6205 12.6565 10.7535 12.665C10.8865 12.6735 10.9375 12.7811 10.9771 12.8914C11.1186 13.2933 11.0733 13.6839 10.8894 14.0631C10.8214 14.1989 10.7365 14.3574 10.5469 14.3178C10.3573 14.281 10.3516 14.1027 10.3318 13.9527C10.3233 13.8848 10.329 13.8112 10.329 13.7433Z" fill="white"/>
<path d="M16.2487 4.3959C16.2458 4.74399 15.6968 5.30435 15.3289 5.32699C15.111 5.34114 14.9949 5.23077 15.06 5.03266C15.1959 4.6223 15.476 4.31382 15.8921 4.14402C16.093 4.06761 16.2515 4.19496 16.2487 4.3959Z" fill="white"/>
<path d="M38.1143 24.8322C38.1765 24.2294 38.802 23.0747 39.1869 22.8257C39.3029 23.2332 38.6293 24.5152 38.1143 24.8322Z" fill="white"/>
<path d="M20.6275 1.84853C20.4803 1.82588 20.3133 1.85136 20.2765 1.68721C20.2426 1.54005 20.3869 1.48345 20.4888 1.42401C20.752 1.27685 21.0322 1.16931 21.3407 1.14101C21.468 1.12969 21.6039 1.12686 21.6576 1.27119C21.7057 1.39854 21.6095 1.48062 21.5161 1.54571C21.2473 1.72966 20.9388 1.81173 20.6275 1.84853Z" fill="white"/>
<path d="M36.3374 25.9497C36.411 26.4365 35.7686 27.3676 35.2139 27.5912C35.4601 26.9402 35.7374 26.3827 36.3374 25.9497Z" fill="white"/>
<path d="M17.754 3.30644C17.5898 3.2838 17.5021 3.19041 17.57 3.00079C17.6436 2.78854 18.0879 2.4744 18.3228 2.46308C18.4954 2.45459 18.5803 2.52534 18.5464 2.69798C18.4983 2.93853 18.0341 3.30644 17.754 3.30644Z" fill="white"/>
<path d="M41.5015 16.8169C41.4477 17.8527 41.3006 18.88 40.9893 19.879C41.0911 18.8489 41.2525 17.8272 41.5015 16.8169Z" fill="white"/>
<path d="M31.7304 1.45233C31.4474 1.25989 31.1021 1.19763 30.8135 1.01367C31.7134 1.27121 32.5879 1.58818 33.403 2.04665C32.9474 1.88533 32.4917 1.72402 32.0389 1.56271L32.0474 1.5712C31.9455 1.5146 31.8238 1.50327 31.7219 1.44384L31.7304 1.45233Z" fill="white"/>
<path d="M39.3119 23.6911C39.6119 23.0912 39.9091 22.494 40.2091 21.894C40.0506 22.5591 39.7223 23.1449 39.3827 23.7279C39.3119 23.7902 39.2921 23.7506 39.3119 23.6911Z" fill="white"/>
<path d="M33.8863 28.2026C33.9089 28.4913 33.7504 28.7404 33.4391 28.8988C33.3684 28.5734 33.5665 28.2649 33.8863 28.2026Z" fill="white"/>
<path d="M35.9637 27.5226C36.224 27.0755 36.6033 26.7217 36.974 26.3623C36.708 26.8038 36.3995 27.2113 35.958 27.517L35.9637 27.5226Z" fill="white"/>
<path d="M37.3641 26.1727C37.548 25.836 37.8197 25.5671 38.0829 25.2954C37.8933 25.6294 37.6725 25.9378 37.3584 26.1671L37.3641 26.1727Z" fill="white"/>
<path d="M34.3134 28.6663C34.1577 28.9719 33.8464 29.1332 33.5889 29.3455C33.8209 29.1106 34.0077 28.8332 34.319 28.6747L34.3134 28.6663Z" fill="white"/>
<path d="M35.958 27.5142L35.9658 27.522C35.9658 27.5259 35.958 27.5142 35.958 27.5142Z" fill="white"/>
<path d="M34.3213 28.6741L34.3137 28.6665L34.3213 28.6741Z" fill="white"/>
<path d="M31.7217 1.44678C31.8462 1.44961 31.9594 1.48357 32.0471 1.57413C31.9226 1.5713 31.8122 1.53451 31.7217 1.44678Z" fill="white"/>
<path d="M1.40275 20.2129C1.19049 20.4252 0.978239 20.6374 0.765983 20.8525C0.751833 20.8327 0.734853 20.8129 0.720703 20.7931C1.10276 20.3544 1.48765 19.9214 1.86122 19.4714C1.94895 19.3667 2.20083 19.3214 2.0282 19.0469C2.01971 19.0356 2.10178 18.9366 2.14423 18.88C3.06117 17.6602 4.21301 16.998 5.56296 16.9017C6.5648 16.831 7.5525 16.9668 8.42982 17.6574C8.84584 17.9828 9.29016 18.2602 9.67789 18.6281C10.0628 18.996 10.4646 19.3526 10.742 19.8761C10.9344 20.2384 11.2005 20.5384 11.4212 20.8808C12.4202 22.4402 13.224 24.1439 13.9202 25.9183C14.9616 28.5843 15.9635 31.2728 16.9965 33.9444C17.9049 36.2962 18.8869 38.6056 20.1265 40.7338C20.9104 42.0781 21.7934 43.3148 22.8575 44.3506C24.6914 46.1364 26.7828 46.9543 29.1318 46.7449C29.8535 46.6798 30.5695 46.4845 31.2855 46.343C31.4327 46.3147 31.577 46.2552 31.7242 46.21C31.7468 46.2439 31.7694 46.2779 31.7921 46.3118C31.7468 46.3288 31.6987 46.3402 31.6562 46.3685C30.5695 47.0364 29.4488 47.5684 28.2375 47.8118C26.3215 48.1967 24.5301 47.7778 22.8434 46.6458C21.4057 45.6807 20.2199 44.3478 19.1501 42.8592C17.6417 40.7621 16.405 38.4358 15.3041 36.0076C14.3956 34.0039 13.5466 31.9634 12.6693 29.937C12.6297 29.8437 12.59 29.7503 12.5532 29.6654C12.5193 29.671 12.508 29.6739 12.4966 29.6767C12.4853 29.6823 12.4712 29.6908 12.4683 29.7022C12.4598 29.7305 12.4542 29.7616 12.4542 29.7927C12.4485 34.6604 12.4429 39.5282 12.4372 44.3959C12.4372 44.41 12.4287 44.4242 12.4259 44.4383C12.1457 44.5487 7.51288 44.5261 7.00913 44.4016C7.00913 44.2317 7.00913 44.0506 7.00913 43.8695C7.00913 36.5424 7.00913 29.2182 7.00913 21.8911C7.00913 21.7044 7.01196 21.5204 7.00913 21.3336C7.00347 21.0167 6.96101 20.7223 6.67518 20.5865C6.6299 20.5638 6.5931 20.5242 6.55065 20.4903C6.5648 20.462 6.57895 20.4365 6.59593 20.4082C6.7148 20.4676 6.83083 20.5242 6.95252 20.5837C7.05724 20.2129 6.71197 20.0176 6.73744 19.6865C6.54216 19.4997 6.09218 19.8337 6.08369 19.228C6.29312 19.2507 6.49122 19.2733 6.69216 19.2931L6.68084 19.2818C6.81951 19.3696 6.95818 19.4601 7.08554 19.5422C7.18176 19.412 7.24402 19.3271 7.30911 19.2337C7.28647 19.1997 7.26949 19.146 7.23836 19.1347C6.72612 18.9167 6.23085 18.6139 5.67899 18.5856C5.11015 18.5545 4.5413 18.5715 3.97812 18.7384C3.18287 18.9762 2.50931 19.4856 1.84141 20.0233C1.78198 20.0714 1.7084 20.0969 1.64331 20.1337L1.64897 20.1422C1.70274 20.0714 1.76217 20.0035 1.80462 19.9242C1.83292 19.8733 1.84141 19.8054 1.85556 19.746C2.05367 19.7714 2.14706 19.6016 2.22064 19.4035C2.10178 19.5224 1.98292 19.6384 1.86405 19.7573C1.69708 19.8478 1.54142 19.9554 1.48482 20.1903C1.44803 20.2016 1.42539 20.2101 1.40275 20.2129ZM10.1731 20.1931C10.2184 19.8931 10.1703 19.7261 10.0147 19.5931C9.89014 19.4856 9.78826 19.3413 9.67222 19.2252C8.97037 18.5262 8.24587 17.8951 7.3459 17.5809C6.70914 17.3574 6.06954 17.281 5.41862 17.3121C5.16109 17.3234 4.87808 17.3149 4.64601 17.5357C6.8846 17.1762 8.64208 18.2687 10.1731 20.1931ZM7.68551 19.6243C7.69683 19.5846 7.70815 19.545 7.71947 19.5026C7.62042 19.4658 7.52137 19.4262 7.42232 19.3894C7.411 19.4262 7.40251 19.4658 7.39119 19.5026C7.48741 19.5422 7.58646 19.5846 7.68551 19.6243Z" fill="white"/>
<path d="M21.4987 16.2108C23.3354 16.1853 25.1183 16.1627 26.8871 16.1372C26.9692 16.5221 26.9975 39.2985 26.9267 39.9608C26.7541 39.9834 26.6522 39.8193 26.539 39.7145C25.6872 38.9306 24.9938 37.9627 24.3712 36.9184C23.2703 35.0676 22.4099 33.0526 21.5864 31.0092C21.5071 30.814 21.4987 30.5621 21.4987 30.3357C21.493 26.5349 21.4958 22.7313 21.4958 18.9305C21.4958 18.2032 21.4958 17.4787 21.4958 16.7513C21.4987 16.6013 21.4987 16.4485 21.4987 16.2108Z" fill="white"/>
<path d="M8.16699 15.2235C8.42453 15.164 8.67924 15.0848 8.9396 15.0508C10.0547 14.9122 11.0961 15.1839 12.0555 15.9027C13.0036 16.6159 13.7536 17.5781 14.4186 18.645C15.4091 20.2299 16.2044 21.9562 16.9091 23.7392C17.894 26.2325 18.8392 28.7484 19.8071 31.2502C20.792 33.7972 21.8221 36.316 23.1381 38.6452C24.0579 40.2724 25.0965 41.7724 26.4295 42.9384C27.8728 44.2006 29.4803 44.843 31.2717 44.7638C31.317 44.7609 31.3651 44.7723 31.416 44.8572C31.1472 44.8968 30.8755 44.9477 30.6066 44.976C27.7171 45.2873 25.2606 44.1553 23.1834 41.7384C21.9749 40.3347 21.0099 38.7074 20.158 36.9754C19.0005 34.6208 18.0751 32.1303 17.1751 29.6229C16.2667 27.0871 15.361 24.5514 14.4215 22.0326C13.9262 20.7082 13.3262 19.4488 12.613 18.2743C12.1036 17.4366 11.5348 16.6696 10.8075 16.0923C10.0575 15.4952 9.23959 15.2065 8.3368 15.3197C8.30001 15.3254 8.26038 15.3225 8.22359 15.3225C8.21227 15.3225 8.20095 15.3112 8.18963 15.3027C8.18114 15.2801 8.17548 15.2518 8.16699 15.2235Z" fill="white"/>
<path d="M5.03339 19.8703C4.88057 19.9269 4.72491 19.9863 4.56926 20.0458C4.53813 19.6977 4.29757 19.9326 4.17871 19.8278C4.5353 19.5958 4.97962 19.6354 5.33904 19.8703C5.4862 19.9665 5.67865 19.9637 5.84845 20.009C5.93901 20.0316 6.02675 20.0627 6.17108 20.1052C5.63054 20.3344 5.2315 20.241 5.03339 19.8703Z" fill="white"/>
<path d="M5.8204 19.2136C5.63078 19.2136 5.42702 19.2731 5.25721 19.2023C4.85251 19.0325 4.47894 19.208 4.09122 19.2618C4.00349 19.2731 3.91576 19.2816 3.8252 19.2363C4.47894 18.9844 5.13835 18.8571 5.8204 19.2136Z" fill="white"/>
<path d="M3.1145 20.0374C3.39751 19.5535 3.83051 19.6129 4.22955 19.5535C4.17578 19.5903 4.12484 19.6412 4.06824 19.6638C3.80504 19.7572 3.52203 19.7884 3.30695 20.0346C3.27582 20.0685 3.19091 20.0374 3.1145 20.0374Z" fill="white"/>
<path d="M1.74805 21.254C1.84993 20.9002 1.99992 20.7757 2.39896 20.7078C2.18105 20.8889 1.96596 21.0728 1.74805 21.254Z" fill="white"/>
<path d="M4.68262 19.4147C4.83827 19.3751 4.99393 19.3355 5.17788 19.2874C4.95996 19.576 4.94298 19.5817 4.68262 19.4147Z" fill="white"/>
<path d="M6.67514 19.2931C6.67514 19.2393 6.67514 19.1856 6.67514 19.0752C6.794 19.1233 6.90154 19.1686 7.00909 19.211C7.00626 19.2422 7.00343 19.2733 7.0006 19.3073C6.88739 19.2988 6.77702 19.2903 6.66382 19.2818C6.66382 19.279 6.67514 19.2931 6.67514 19.2931Z" fill="white"/>
<path d="M1.40272 20.2127C1.42819 20.2127 1.448 20.2042 1.47065 20.1872C1.52442 20.1702 1.57819 20.1561 1.63196 20.1391L1.6263 20.1306C1.56404 20.224 1.5046 20.3174 1.44234 20.4136C1.42253 20.4051 1.40555 20.3938 1.38574 20.3853C1.3914 20.3259 1.39706 20.2693 1.40272 20.2127Z" fill="white"/>
<path d="M1.3238 21.6226C1.27569 21.6763 1.23041 21.7301 1.1823 21.7839C1.17098 21.7669 1.15683 21.7528 1.14551 21.7358C1.19362 21.682 1.2389 21.6282 1.28701 21.5745C1.29833 21.5914 1.30965 21.6084 1.3238 21.6226Z" fill="white"/>
<path d="M10.1736 20.193C8.64255 18.2685 6.88224 17.179 4.64648 17.5327C4.87855 17.3148 5.16156 17.3233 5.4191 17.3091C6.07001 17.278 6.70961 17.3544 7.34637 17.578C8.24351 17.8921 8.97084 18.5204 9.6727 19.2223C9.79156 19.3411 9.89344 19.4826 10.0151 19.5902C10.1708 19.726 10.2217 19.893 10.1736 20.193Z" fill="white"/>
<path d="M7.68583 19.6248C7.58678 19.5852 7.48772 19.5427 7.38867 19.5031C7.39999 19.4663 7.40848 19.4267 7.4198 19.3899C7.51886 19.4267 7.61791 19.4663 7.71696 19.5031C7.70847 19.5455 7.69715 19.5852 7.68583 19.6248Z" fill="white"/>
<path d="M1.85001 19.7517C1.96887 19.6328 2.08774 19.5168 2.2066 19.3979C2.13302 19.5961 2.03679 19.7659 1.84152 19.7404C1.83869 19.7404 1.85001 19.7517 1.85001 19.7517Z" fill="white"/>
<path d="M1.62909 20.1357C1.57532 20.1527 1.52154 20.1668 1.46777 20.1838C1.52437 19.9518 1.68003 19.8442 1.847 19.7508L1.83568 19.7395C1.8187 19.7989 1.81021 19.8669 1.78191 19.9178C1.74229 19.997 1.68286 20.065 1.62909 20.1357Z" fill="white"/>
</g>
<path d="M52.8386 33.8097C53.3002 33.5825 53.7333 33.4689 54.1378 33.4689C54.8535 33.4689 55.4162 33.7568 55.826 34.3327C56.2357 34.9085 56.4406 35.6322 56.4406 36.5039C56.4406 37.2276 56.2824 37.8721 55.966 38.4373C55.6133 39.066 55.118 39.5018 54.4801 39.7448C54.1326 39.8769 53.767 39.9429 53.3832 39.9429C52.9994 39.9429 52.6441 39.898 52.3174 39.8082C51.9958 39.7184 51.7624 39.6286 51.6172 39.5388L51.3916 39.4041C51.3968 39.3618 51.4538 38.9683 51.5628 38.2234C51.791 36.6703 51.9051 35.2624 51.9051 33.9998C51.9051 33.5825 51.8687 33.2867 51.7961 33.1123C52.3511 33.2603 52.6986 33.4927 52.8386 33.8097ZM52.5274 39.2298C52.7297 39.309 52.9553 39.3486 53.2042 39.3486C53.6555 39.3486 54.0444 39.2007 54.3712 38.9049C54.7031 38.609 54.9417 38.2472 55.0869 37.8193C55.2373 37.3914 55.3125 36.937 55.3125 36.4563C55.3125 35.7801 55.1699 35.2281 54.8846 34.8002C54.5994 34.3723 54.2156 34.1583 53.7333 34.1583C53.4324 34.1583 53.1679 34.2059 52.9397 34.301C52.9397 34.6232 52.8697 35.4341 52.7297 36.7337C52.5948 38.0332 52.5274 38.8653 52.5274 39.2298Z" fill="white"/>
<path d="M59.0293 35.8858C59.0293 35.965 58.9645 36.3824 58.8348 37.1378C58.7104 37.8879 58.6455 38.5087 58.6404 39C58.6404 39.486 58.6715 39.8003 58.7337 39.9429C58.3292 39.8373 58.0569 39.6788 57.9168 39.4675C57.7768 39.2509 57.7068 38.9366 57.7068 38.5245C57.7068 38.3026 57.7483 37.9012 57.8313 37.32C57.9143 36.7389 57.9557 36.2873 57.9557 35.965C57.9557 35.6428 57.9402 35.3945 57.9091 35.2202C58.0232 35.2096 58.1295 35.2043 58.228 35.2043C58.5288 35.2043 58.7363 35.2571 58.8504 35.3628C58.9697 35.4632 59.0293 35.6375 59.0293 35.8858ZM59.146 34.507C59.0008 34.5281 58.8737 34.5387 58.7648 34.5387C58.2306 34.5387 57.9635 34.3485 57.9635 33.9681C57.9635 33.8308 58.0024 33.6433 58.0802 33.4055C58.2254 33.3844 58.3525 33.3738 58.4614 33.3738C58.9956 33.3738 59.2627 33.564 59.2627 33.9444C59.2627 34.0817 59.2238 34.2693 59.146 34.507Z" fill="white"/>
<path d="M62.7269 35.3311C62.8254 35.3311 62.9006 35.3364 62.9525 35.3469C63.0873 35.3734 63.1599 35.4711 63.1703 35.6401C62.605 35.7616 62.1538 36.0733 61.8167 36.5752C61.4847 37.077 61.3188 37.6 61.3188 38.1442C61.3188 38.7781 61.5081 39.0951 61.8867 39.0951C62.1149 39.0951 62.3198 38.9683 62.5013 38.7147C62.8228 38.2551 63.0484 37.5366 63.1781 36.5593C63.2766 35.788 63.4608 35.2915 63.7304 35.0696C63.8601 34.9587 64.0209 34.8715 64.2128 34.8081C64.1402 35.3681 64.1039 35.7907 64.1039 36.076C64.1039 38.1891 63.8809 39.7765 63.4348 40.8384C62.994 41.9002 62.2731 42.4311 61.2721 42.4311C60.8676 42.4311 60.5512 42.3202 60.323 42.0983C60.0948 41.8817 59.9807 41.6413 59.9807 41.3772C59.9807 41.1183 60.0611 40.9044 60.2219 40.7353C60.3826 40.5716 60.6082 40.4897 60.8987 40.4897C61.018 40.4897 61.1398 40.5161 61.2643 40.5689C61.0672 40.701 60.9687 40.9044 60.9687 41.1791C60.9687 41.364 61.0232 41.5225 61.1321 41.6545C61.241 41.7919 61.3732 41.8606 61.5288 41.8606C61.6896 41.8606 61.8296 41.8262 61.9489 41.7576C62.0682 41.6942 62.1901 41.5779 62.3146 41.4089C62.439 41.2399 62.548 41.0285 62.6413 40.775C62.8539 40.1886 62.9706 39.3882 62.9914 38.374C62.841 38.8283 62.6128 39.1928 62.3068 39.4675C62.0008 39.7422 61.6896 39.8795 61.3732 39.8795C60.9739 39.8795 60.6679 39.7263 60.4552 39.4199C60.2478 39.1083 60.1441 38.7121 60.1441 38.2313C60.1441 37.6714 60.2763 37.151 60.5408 36.6703C60.8364 36.1156 61.2462 35.7299 61.77 35.5133C62.0604 35.3918 62.3794 35.3311 62.7269 35.3311Z" fill="white"/>
<path d="M66.9678 35.8858C66.9678 35.965 66.903 36.3824 66.7734 37.1378C66.6489 37.8879 66.5841 38.5087 66.5789 39C66.5789 39.486 66.61 39.8003 66.6722 39.9429C66.2677 39.8373 65.9954 39.6788 65.8554 39.4675C65.7153 39.2509 65.6453 38.9366 65.6453 38.5245C65.6453 38.3026 65.6868 37.9012 65.7698 37.32C65.8528 36.7389 65.8943 36.2873 65.8943 35.965C65.8943 35.6428 65.8787 35.3945 65.8476 35.2202C65.9617 35.2096 66.068 35.2043 66.1666 35.2043C66.4674 35.2043 66.6748 35.2571 66.7889 35.3628C66.9082 35.4632 66.9678 35.6375 66.9678 35.8858ZM67.0845 34.507C66.9393 34.5281 66.8123 34.5387 66.7033 34.5387C66.1691 34.5387 65.902 34.3485 65.902 33.9681C65.902 33.8308 65.9409 33.6433 66.0187 33.4055C66.164 33.3844 66.291 33.3738 66.3999 33.3738C66.9341 33.3738 67.2012 33.564 67.2012 33.9444C67.2012 34.0817 67.1623 34.2693 67.0845 34.507Z" fill="white"/>
<path d="M69.9263 36.0997C69.9004 36.2899 69.846 36.6201 69.763 37.0902C69.5866 38.0887 69.4985 38.8283 69.4985 39.309C69.4985 39.7897 69.5348 40.112 69.6074 40.2757C69.208 40.1701 68.9331 40.009 68.7827 39.7924C68.6323 39.5705 68.5571 39.2588 68.5571 38.8573C68.5571 38.5034 68.6116 38.02 68.7205 37.4072C68.8294 36.7891 68.8994 36.3718 68.9306 36.1552C68.6609 36.2027 68.373 36.2952 68.067 36.4325C68.0566 36.3163 68.0515 36.2292 68.0515 36.171C68.0515 35.8911 68.1344 35.7009 68.3004 35.6005C68.4664 35.4949 68.7049 35.4394 69.0161 35.4341C69.0524 35.0379 69.0706 34.7526 69.0706 34.5783C69.0706 34.404 69.068 34.2587 69.0628 34.1425C69.0628 34.0263 69.0628 33.9391 69.0628 33.881C69.4051 33.918 69.6541 34.0236 69.8096 34.1979C69.9652 34.367 70.043 34.61 70.043 34.927C70.043 35.0537 70.0301 35.2307 70.0041 35.4579C70.4398 35.4473 70.7588 35.3601 70.961 35.1964C70.9714 35.302 70.9766 35.3813 70.9766 35.4341C70.9766 35.6877 70.9325 35.8646 70.8443 35.965C70.7562 36.0601 70.6084 36.1077 70.4009 36.1077C70.1934 36.1077 70.0353 36.105 69.9263 36.0997Z" fill="white"/>
<path d="M72.5383 38.3264C72.5383 38.5747 72.5824 38.7781 72.6705 38.9366C72.7639 39.0898 72.8935 39.1664 73.0595 39.1664C73.3033 39.1664 73.5341 39.0211 73.7519 38.7305C73.9749 38.44 74.1512 38.0676 74.2809 37.6132C74.4158 37.1589 74.4832 36.7284 74.4832 36.3216C74.4832 35.9096 74.4676 35.5767 74.4365 35.3232C74.5921 35.3126 74.701 35.3073 74.7632 35.3073C75.0277 35.3073 75.2274 35.3575 75.3623 35.4579C75.4971 35.5582 75.5645 35.7379 75.5645 35.9967C75.5645 36.0971 75.5023 36.5065 75.3778 37.225C75.2534 37.9381 75.1911 38.5113 75.1911 38.9445C75.1911 39.3724 75.2715 39.7528 75.4323 40.0856C75.0433 40.0169 74.7581 39.8716 74.5765 39.6497C74.395 39.4226 74.3042 39.0977 74.3042 38.6751C74.3042 38.6011 74.3146 38.4585 74.3354 38.2472C74.1953 38.749 73.9464 39.1532 73.5885 39.4596C73.2307 39.766 72.878 39.9192 72.5305 39.9192C72.1882 39.9192 71.9107 39.7897 71.6981 39.5309C71.4906 39.2667 71.3869 38.8943 71.3869 38.4136C71.3869 37.9328 71.4699 37.468 71.6358 37.0189C71.807 36.5646 72.0611 36.1816 72.3982 35.8699C72.7354 35.553 73.1114 35.3945 73.5263 35.3945C73.7649 35.3945 74.0086 35.4526 74.2576 35.5688C73.7337 35.759 73.3162 36.1341 73.0051 36.694C72.6939 37.2487 72.5383 37.7929 72.5383 38.3264Z" fill="white"/>
<path d="M77.0019 39.626C76.9397 39.5203 76.9008 39.4199 76.8852 39.3249C76.8697 39.2245 76.8619 39.0713 76.8619 38.8653C76.8619 38.6592 76.9475 37.8483 77.1186 36.4325C77.295 35.0168 77.3831 34.0447 77.3831 33.5165C77.3831 32.9882 77.352 32.6448 77.2898 32.4863C77.6788 32.592 77.9433 32.7531 78.0833 32.9697C78.2285 33.181 78.3011 33.4821 78.3011 33.8731C78.3011 34.1055 78.2259 34.8609 78.0755 36.1394C77.9251 37.4178 77.8499 38.4479 77.8499 39.2298C77.8499 39.3988 77.8603 39.6365 77.881 39.9429C77.4091 39.9218 77.116 39.8161 77.0019 39.626Z" fill="white"/>
<path d="M85.6132 38.3343C85.4265 38.4083 85.2813 38.4453 85.1775 38.4453C84.8664 38.4453 84.6926 38.4004 84.6563 38.3106C84.1377 36.9529 83.7954 36.0786 83.6294 35.6877C83.6138 35.8303 83.5724 36.1605 83.5049 36.6782C83.3649 37.6925 83.2949 38.5351 83.2949 39.206C83.2949 39.3698 83.3053 39.589 83.326 39.8637C82.963 39.8637 82.7166 39.8214 82.5869 39.7369C82.4625 39.6471 82.4002 39.523 82.4002 39.3645C82.4002 39.3116 82.4858 38.5932 82.657 37.2091C82.8333 35.825 82.9215 34.8609 82.9215 34.3168V34.2772C82.7711 34.0289 82.6129 33.8255 82.4469 33.667C82.6388 33.5297 82.8696 33.461 83.1393 33.461C83.4816 33.461 83.7461 33.6248 83.9328 33.9523C84.1195 34.2745 84.4852 35.1647 85.0297 36.6227L85.3876 37.5578C85.4187 37.5049 85.4654 37.4336 85.5276 37.3438C86.7931 35.4367 87.444 34.1425 87.4803 33.461C87.4803 33.4663 87.5425 33.4742 87.667 33.4848C87.7915 33.4901 87.9237 33.5165 88.0638 33.564C88.209 33.6063 88.3127 33.6749 88.375 33.77C88.4424 33.8598 88.4839 33.9497 88.4994 34.0395C88.515 34.124 88.5228 34.2719 88.5228 34.4832C88.5228 34.6892 88.4372 35.3892 88.266 36.5831C88.0949 37.777 88.0093 38.6143 88.0093 39.0951C88.0093 39.5705 88.0456 39.8954 88.1182 40.0697C87.6774 39.9535 87.3766 39.8003 87.2158 39.6101C87.055 39.4147 86.9746 39.1452 86.9746 38.8019C86.9746 38.6011 87.0265 38.1072 87.1302 37.32C87.2391 36.5329 87.3143 35.9043 87.3558 35.4341C87.1484 35.7986 86.8528 36.2978 86.469 36.9318C86.0904 37.5657 85.8622 37.9434 85.7844 38.0649C85.7066 38.1811 85.6495 38.2709 85.6132 38.3343Z" fill="white"/>
<path d="M90.8236 38.3264C90.8236 38.5747 90.8677 38.7781 90.9559 38.9366C91.0493 39.0898 91.1789 39.1664 91.3449 39.1664C91.5886 39.1664 91.8194 39.0211 92.0373 38.7305C92.2603 38.44 92.4366 38.0676 92.5663 37.6132C92.7011 37.1589 92.7685 36.7284 92.7685 36.3216C92.7685 35.9096 92.753 35.5767 92.7219 35.3232C92.8775 35.3126 92.9864 35.3073 93.0486 35.3073C93.3131 35.3073 93.5128 35.3575 93.6476 35.4579C93.7825 35.5582 93.8499 35.7379 93.8499 35.9967C93.8499 36.0971 93.7877 36.5065 93.6632 37.225C93.5387 37.9381 93.4765 38.5113 93.4765 38.9445C93.4765 39.3724 93.5569 39.7528 93.7176 40.0856C93.3287 40.0169 93.0434 39.8716 92.8619 39.6497C92.6804 39.4226 92.5896 39.0977 92.5896 38.6751C92.5896 38.6011 92.6 38.4585 92.6207 38.2472C92.4807 38.749 92.2317 39.1532 91.8739 39.4596C91.516 39.766 91.1633 39.9192 90.8159 39.9192C90.4736 39.9192 90.1961 39.7897 89.9834 39.5309C89.776 39.2667 89.6723 38.8943 89.6723 38.4136C89.6723 37.9328 89.7552 37.468 89.9212 37.0189C90.0924 36.5646 90.3465 36.1816 90.6836 35.8699C91.0207 35.553 91.3967 35.3945 91.8116 35.3945C92.0502 35.3945 92.294 35.4526 92.5429 35.5688C92.0191 35.759 91.6016 36.1341 91.2904 36.694C90.9792 37.2487 90.8236 37.7929 90.8236 38.3264Z" fill="white"/>
<path d="M96.3142 37.2487C96.5009 36.562 96.7239 36.0575 96.9833 35.7352C97.2478 35.4077 97.4915 35.2439 97.7145 35.2439C97.9427 35.2439 98.1139 35.3311 98.228 35.5054C98.3421 35.6745 98.3991 35.8963 98.3991 36.171C98.3991 36.4405 98.3188 36.6888 98.158 36.9159C98.0024 37.1431 97.7871 37.2567 97.5123 37.2567C97.4397 37.2567 97.3541 37.2355 97.2555 37.1933C97.4163 36.9872 97.4967 36.7389 97.4967 36.4484C97.4967 36.2793 97.4293 36.1948 97.2944 36.1948C97.1959 36.1948 97.0896 36.2661 96.9755 36.4088C96.8614 36.5461 96.7525 36.7389 96.6487 36.9872C96.545 37.2302 96.4568 37.5446 96.3842 37.9302C96.3168 38.3106 96.2831 38.7173 96.2831 39.1505C96.2831 39.2033 96.2961 39.4279 96.322 39.8241C96.156 39.8346 96.0497 39.8399 96.003 39.8399C95.7074 39.8399 95.4948 39.7871 95.3651 39.6814C95.2354 39.5758 95.1706 39.4015 95.1706 39.1584C95.1706 39.0528 95.2251 38.646 95.334 37.9381C95.4429 37.2302 95.4973 36.6676 95.4973 36.2503C95.4973 35.8277 95.4533 35.4394 95.3651 35.0854C95.7437 35.2069 96.0082 35.3813 96.1586 35.6084C96.309 35.8303 96.3842 36.0918 96.3842 36.3929C96.3842 36.6888 96.3609 36.974 96.3142 37.2487Z" fill="white"/>
<path d="M100.118 37.3755C100.304 36.2926 100.685 35.6137 101.261 35.339C101.406 35.2703 101.549 35.236 101.689 35.236C101.964 35.236 102.197 35.339 102.389 35.545C102.581 35.7511 102.677 36.0152 102.677 36.3375C102.677 36.6597 102.586 36.937 102.405 37.1695C102.228 37.3966 101.979 37.5736 101.658 37.7004L101.751 37.9936C101.922 38.5377 102.171 39.0766 102.498 39.6101C102.825 40.1437 103.089 40.5082 103.292 40.7037C103.105 40.7512 102.939 40.775 102.794 40.775C102.27 40.775 101.811 40.3867 101.417 39.6101C101.261 39.3037 101.033 38.7305 100.732 37.8906C100.665 37.8959 100.566 37.8985 100.437 37.8985C100.405 37.8721 100.39 37.7876 100.39 37.6449C100.628 37.6397 100.841 37.5974 101.028 37.5182C101.214 37.4389 101.36 37.3359 101.463 37.2091C101.661 36.9503 101.759 36.6782 101.759 36.3929C101.759 36.2503 101.728 36.1341 101.666 36.0443C101.609 35.9492 101.526 35.9016 101.417 35.9016C101.225 35.9016 101.028 36.0416 100.826 36.3216C100.628 36.6016 100.46 36.9925 100.32 37.4944C100.185 37.991 100.118 38.4585 100.118 38.8969C100.118 39.3301 100.133 39.6392 100.164 39.8241C99.9983 39.8346 99.8894 39.8399 99.8375 39.8399C99.5419 39.8399 99.3292 39.7897 99.1996 39.6894C99.0699 39.5837 99.0051 39.4173 99.0051 39.1901C99.0051 38.963 99.0518 38.5298 99.1451 37.8906C99.42 35.9254 99.5574 34.433 99.5574 33.4135C99.5574 32.9539 99.5263 32.6448 99.4641 32.4863C99.8531 32.592 100.118 32.7531 100.258 32.9697C100.403 33.181 100.475 33.4821 100.475 33.8731C100.475 34.1372 100.424 34.6919 100.32 35.5371C100.221 36.3824 100.154 36.9952 100.118 37.3755Z" fill="white"/>
<path d="M105.581 37.8747C105.332 37.8747 105.088 37.8457 104.849 37.7876C104.844 37.8404 104.841 37.9223 104.841 38.0332C104.841 38.4717 104.922 38.8019 105.083 39.0237C105.243 39.2456 105.435 39.3565 105.658 39.3565C105.881 39.3565 106.094 39.2879 106.296 39.1505C106.499 39.0132 106.675 38.823 106.825 38.58C107.012 38.6222 107.105 38.72 107.105 38.8732C106.649 39.5863 106.06 39.9429 105.339 39.9429C104.904 39.9429 104.523 39.7739 104.196 39.4358C103.869 39.0924 103.706 38.617 103.706 38.0094C103.706 37.5551 103.791 37.1246 103.962 36.7178C104.134 36.3058 104.406 35.9597 104.779 35.6798C105.153 35.3945 105.565 35.2518 106.016 35.2518C106.473 35.2518 106.807 35.3575 107.02 35.5688C107.232 35.7801 107.339 36.0575 107.339 36.4008C107.339 36.8974 107.168 37.2672 106.825 37.5102C106.488 37.7532 106.073 37.8747 105.581 37.8747ZM105.907 35.7431C105.643 35.7431 105.42 35.9096 105.238 36.2424C105.057 36.5752 104.937 36.9793 104.88 37.4548H104.997C105.448 37.4548 105.78 37.3359 105.993 37.0982C106.211 36.8604 106.32 36.5752 106.32 36.2424C106.32 36.105 106.283 35.9888 106.211 35.8937C106.143 35.7933 106.042 35.7431 105.907 35.7431Z" fill="white"/>
<path d="M110.128 36.0997C110.102 36.2899 110.048 36.6201 109.965 37.0902C109.789 38.0887 109.7 38.8283 109.7 39.309C109.7 39.7897 109.737 40.112 109.809 40.2757C109.41 40.1701 109.135 40.009 108.985 39.7924C108.834 39.5705 108.759 39.2588 108.759 38.8573C108.759 38.5034 108.814 38.02 108.922 37.4072C109.031 36.7891 109.101 36.3718 109.132 36.1552C108.863 36.2027 108.575 36.2952 108.269 36.4325C108.259 36.3163 108.253 36.2292 108.253 36.171C108.253 35.8911 108.336 35.7009 108.502 35.6005C108.668 35.4949 108.907 35.4394 109.218 35.4341C109.254 35.0379 109.273 34.7526 109.273 34.5783C109.273 34.404 109.27 34.2587 109.265 34.1425C109.265 34.0263 109.265 33.9391 109.265 33.881C109.607 33.918 109.856 34.0236 110.012 34.1979C110.167 34.367 110.245 34.61 110.245 34.927C110.245 35.0537 110.232 35.2307 110.206 35.4579C110.642 35.4473 110.961 35.3601 111.163 35.1964C111.173 35.302 111.179 35.3813 111.179 35.4341C111.179 35.6877 111.134 35.8646 111.046 35.965C110.958 36.0601 110.81 36.1077 110.603 36.1077C110.395 36.1077 110.237 36.105 110.128 36.0997Z" fill="white"/>
<path d="M113.293 35.8858C113.293 35.965 113.228 36.3824 113.098 37.1378C112.974 37.8879 112.909 38.5087 112.904 39C112.904 39.486 112.935 39.8003 112.997 39.9429C112.592 39.8373 112.32 39.6788 112.18 39.4675C112.04 39.2509 111.97 38.9366 111.97 38.5245C111.97 38.3026 112.012 37.9012 112.094 37.32C112.177 36.7389 112.219 36.2873 112.219 35.965C112.219 35.6428 112.203 35.3945 112.172 35.2202C112.286 35.2096 112.393 35.2043 112.491 35.2043C112.792 35.2043 113 35.2571 113.114 35.3628C113.233 35.4632 113.293 35.6375 113.293 35.8858ZM113.409 34.507C113.264 34.5281 113.137 34.5387 113.028 34.5387C112.494 34.5387 112.227 34.3485 112.227 33.9681C112.227 33.8308 112.266 33.6433 112.343 33.4055C112.489 33.3844 112.616 33.3738 112.725 33.3738C113.259 33.3738 113.526 33.564 113.526 33.9444C113.526 34.0817 113.487 34.2693 113.409 34.507Z" fill="white"/>
<path d="M117.589 35.2518C117.895 35.2518 118.113 35.3496 118.243 35.545C118.377 35.7352 118.445 35.9967 118.445 36.3295C118.445 36.6571 118.393 37.1193 118.289 37.7163C118.191 38.3132 118.141 38.749 118.141 39.0237C118.141 39.2932 118.175 39.4913 118.243 39.618C118.31 39.7395 118.424 39.8452 118.585 39.935C118.517 39.9403 118.422 39.9429 118.297 39.9429C117.861 39.9429 117.55 39.8743 117.364 39.7369C117.182 39.5996 117.091 39.3592 117.091 39.0158C117.091 38.8203 117.143 38.44 117.247 37.8747C117.351 37.3042 117.402 36.8789 117.402 36.599C117.402 36.2503 117.299 36.076 117.091 36.076C116.972 36.076 116.837 36.1473 116.687 36.2899C116.536 36.4325 116.391 36.628 116.251 36.8763C116.111 37.1193 115.994 37.4336 115.901 37.8193C115.808 38.2049 115.761 38.5905 115.761 38.9762C115.761 39.3565 115.776 39.6392 115.808 39.8241C115.642 39.8346 115.533 39.8399 115.481 39.8399C115.185 39.8399 114.973 39.7871 114.843 39.6814C114.713 39.5758 114.648 39.4015 114.648 39.1584C114.648 39.0528 114.703 38.646 114.812 37.9381C114.921 37.2302 114.975 36.6676 114.975 36.2503C114.975 35.8277 114.931 35.4394 114.843 35.0854C115.222 35.2069 115.486 35.3813 115.636 35.6084C115.787 35.8303 115.862 36.0865 115.862 36.3771C115.862 36.6623 115.831 36.9952 115.769 37.3755C115.94 36.7838 116.21 36.282 116.578 35.8699C116.946 35.4579 117.283 35.2518 117.589 35.2518Z" fill="white"/>
<path d="M122.171 35.3311C122.27 35.3311 122.345 35.3364 122.397 35.3469C122.532 35.3734 122.604 35.4711 122.615 35.6401C122.049 35.7616 121.598 36.0733 121.261 36.5752C120.929 37.077 120.763 37.6 120.763 38.1442C120.763 38.7781 120.952 39.0951 121.331 39.0951C121.559 39.0951 121.764 38.9683 121.946 38.7147C122.267 38.2551 122.493 37.5366 122.622 36.5593C122.721 35.788 122.905 35.2915 123.175 35.0696C123.304 34.9587 123.465 34.8715 123.657 34.8081C123.584 35.3681 123.548 35.7907 123.548 36.076C123.548 38.1891 123.325 39.7765 122.879 40.8384C122.438 41.9002 121.717 42.4311 120.716 42.4311C120.312 42.4311 119.995 42.3202 119.767 42.0983C119.539 41.8817 119.425 41.6413 119.425 41.3772C119.425 41.1183 119.505 40.9044 119.666 40.7353C119.827 40.5716 120.052 40.4897 120.343 40.4897C120.462 40.4897 120.584 40.5161 120.709 40.5689C120.511 40.701 120.413 40.9044 120.413 41.1791C120.413 41.364 120.467 41.5225 120.576 41.6545C120.685 41.7919 120.817 41.8606 120.973 41.8606C121.134 41.8606 121.274 41.8262 121.393 41.7576C121.512 41.6942 121.634 41.5779 121.759 41.4089C121.883 41.2399 121.992 41.0285 122.086 40.775C122.298 40.1886 122.415 39.3882 122.436 38.374C122.285 38.8283 122.057 39.1928 121.751 39.4675C121.445 39.7422 121.134 39.8795 120.817 39.8795C120.418 39.8795 120.112 39.7263 119.899 39.4199C119.692 39.1083 119.588 38.7121 119.588 38.2313C119.588 37.6714 119.721 37.151 119.985 36.6703C120.281 36.1156 120.69 35.7299 121.214 35.5133C121.505 35.3918 121.824 35.3311 122.171 35.3311Z" fill="white"/>
<path d="M58.0356 27.0502C57.6947 27.0502 57.4437 26.9624 57.2827 26.7867C57.1217 26.6013 56.9844 26.328 56.8708 25.9669C56.7571 25.596 56.5346 24.6102 56.2031 23.0096C55.9853 23.2048 55.6302 23.3121 55.1377 23.3316L52.7086 23.4195C52.1309 24.8737 51.7048 26.1669 51.4301 27.2991C50.521 26.9673 50.0664 26.5915 50.0664 26.1718C50.0664 25.9864 50.341 25.2934 50.8903 24.0929C51.4396 22.8924 52.0599 21.5309 52.7512 20.0083C53.452 18.476 53.9255 17.3634 54.1717 16.6704L54.4274 15.953C54.3517 15.8164 54.167 15.5675 53.8734 15.2064C54.2144 15.0893 54.5079 15.0307 54.7542 15.0307C55.0099 15.0307 55.2182 15.0502 55.3792 15.0893C55.5497 15.1283 55.6964 15.1966 55.8196 15.2942C55.9521 15.3821 56.0658 15.4748 56.1605 15.5724C56.2647 15.67 56.3594 15.8164 56.4446 16.0116C56.5298 16.197 56.6009 16.3679 56.6577 16.524C56.7145 16.6704 56.776 16.8803 56.8423 17.1535C56.9181 17.4268 56.9749 17.6659 57.0128 17.8709C57.0602 18.0661 57.117 18.3443 57.1833 18.7054C57.259 19.0567 57.3348 19.3983 57.4106 19.7302C57.4863 20.062 57.6189 20.6964 57.8083 21.6334C57.9977 22.5606 58.1445 23.2584 58.2487 23.7269C58.3623 24.1856 58.5186 24.7029 58.7174 25.2788C58.9258 25.8546 59.1436 26.3085 59.3709 26.6403C58.8216 26.9136 58.3765 27.0502 58.0356 27.0502ZM55.0809 17.9002C54.9483 18.2125 54.6547 18.8811 54.2002 19.9059C53.7551 20.9209 53.4094 21.731 53.1632 22.3361H56.0753C55.6302 20.2279 55.2987 18.7493 55.0809 17.9002Z" fill="white"/>
<path d="M60.7137 26.45C60.6001 26.2548 60.5291 26.0693 60.5007 25.8937C60.4722 25.7082 60.458 25.4252 60.458 25.0445C60.458 24.6639 60.6143 23.1657 60.9268 20.55C61.2488 17.9343 61.4098 16.1385 61.4098 15.1625C61.4098 14.1865 61.353 13.5521 61.2393 13.2593C61.9496 13.4545 62.4326 13.7522 62.6883 14.1523C62.9534 14.5427 63.086 15.099 63.086 15.8213C63.086 16.2507 62.9487 17.6464 62.6741 20.0083C62.3994 22.3703 62.2621 24.2735 62.2621 25.718C62.2621 26.0303 62.2811 26.4695 62.3189 27.0356C61.4571 26.9965 60.9221 26.8013 60.7137 26.45Z" fill="white"/>
<path d="M70.1152 18.3687C70.6739 18.3687 71.0717 18.5492 71.3085 18.9103C71.5547 19.2617 71.6778 19.7448 71.6778 20.3597C71.6778 20.9648 71.5831 21.8188 71.3937 22.9217C71.2138 24.0246 71.1238 24.8298 71.1238 25.3373C71.1238 25.8351 71.1853 26.2011 71.3085 26.4353C71.4316 26.6598 71.6399 26.855 71.9335 27.0209C71.8104 27.0307 71.6352 27.0356 71.4079 27.0356C70.6124 27.0356 70.0442 26.9087 69.7033 26.6549C69.3718 26.4012 69.2061 25.9571 69.2061 25.3227C69.2061 24.9616 69.3008 24.2588 69.4902 23.2145C69.6796 22.1604 69.7743 21.3748 69.7743 20.8575C69.7743 20.2133 69.5849 19.8912 69.2061 19.8912C68.9883 19.8912 68.742 20.023 68.4674 20.2865C68.1928 20.55 67.9276 20.9111 67.6719 21.3699C67.4162 21.8188 67.2031 22.3996 67.0327 23.112C66.8622 23.8245 66.777 24.537 66.777 25.2495C66.777 25.9522 66.8054 26.4744 66.8622 26.816C66.5591 26.8355 66.3603 26.8453 66.2656 26.8453C65.7258 26.8453 65.3375 26.7477 65.1007 26.5525C64.864 26.3573 64.7456 26.0352 64.7456 25.5862C64.7456 25.391 64.845 24.6395 65.0439 23.3316C65.2428 22.0238 65.3422 20.9844 65.3422 20.2133C65.3422 19.4325 65.2617 18.7151 65.1007 18.0612C65.7921 18.2857 66.275 18.6078 66.5497 19.0275C66.8243 19.4374 66.9616 19.9107 66.9616 20.4475C66.9616 20.9746 66.9048 21.5895 66.7912 22.2922C67.1037 21.1991 67.5961 20.2719 68.2685 19.5106C68.9409 18.7493 69.5565 18.3687 70.1152 18.3687Z" fill="white"/>
<path d="M75.2856 24.049C75.2856 24.5077 75.3661 24.8835 75.5271 25.1763C75.6976 25.4593 75.9343 25.6008 76.2374 25.6008C76.6825 25.6008 77.1039 25.3324 77.5016 24.7956C77.9089 24.2588 78.2308 23.5708 78.4676 22.7314C78.7138 21.892 78.8369 21.0966 78.8369 20.3451C78.8369 19.5838 78.8085 18.9689 78.7517 18.5004C79.0358 18.4809 79.2347 18.4711 79.3483 18.4711C79.8313 18.4711 80.1959 18.5639 80.4421 18.7493C80.6884 18.9347 80.8115 19.2666 80.8115 19.7448C80.8115 19.9303 80.6978 20.6867 80.4705 22.014C80.2433 23.3316 80.1296 24.3906 80.1296 25.1909C80.1296 25.9815 80.2764 26.6842 80.57 27.2991C79.8597 27.1722 79.3389 26.9038 79.0074 26.4939C78.6759 26.0742 78.5102 25.474 78.5102 24.6932C78.5102 24.5565 78.5292 24.293 78.567 23.9026C78.3113 24.8298 77.8568 25.5764 77.2033 26.1425C76.5499 26.7086 75.9059 26.9917 75.2714 26.9917C74.6464 26.9917 74.1397 26.7525 73.7514 26.2743C73.3726 25.7863 73.1832 25.0982 73.1832 24.21C73.1832 23.3219 73.3347 22.463 73.6378 21.6334C73.9503 20.794 74.4143 20.0864 75.0299 19.5106C75.6455 18.925 76.3321 18.6322 77.0897 18.6322C77.5253 18.6322 77.9704 18.7395 78.425 18.9543C77.4685 19.3056 76.7061 19.9986 76.1379 21.0332C75.5697 22.058 75.2856 23.0632 75.2856 24.049Z" fill="white"/>
<path d="M85.6948 19.2324C85.4296 19.2324 85.1929 19.3251 84.9845 19.5106C84.7762 19.6863 84.672 19.94 84.672 20.2719C84.672 20.6037 84.7809 20.916 84.9987 21.2088C85.226 21.5016 85.5006 21.7603 85.8226 21.9848C86.1446 22.1995 86.4666 22.424 86.7886 22.6582C87.12 22.8827 87.4089 23.1657 87.6551 23.5073C87.9013 23.8392 88.0386 24.21 88.0671 24.62C88.0671 25.3227 87.7735 25.9132 87.1863 26.3914C86.5992 26.8697 85.87 27.1088 84.9987 27.1088C84.1275 27.1088 83.4409 26.9282 82.9389 26.5671C82.4465 26.206 82.2003 25.7912 82.2003 25.3227C82.2003 24.8542 82.3376 24.4784 82.6122 24.1954C82.8963 23.9026 83.2467 23.7562 83.6634 23.7562C83.8812 23.7562 84.0848 23.7952 84.2742 23.8733C83.9712 24.2052 83.8197 24.5565 83.8197 24.9274C83.8197 25.2983 83.9191 25.596 84.118 25.8204C84.3169 26.0449 84.5868 26.1572 84.9277 26.1572C85.2686 26.1572 85.5527 26.0693 85.78 25.8937C86.0168 25.7082 86.1351 25.474 86.1351 25.1909C86.1351 24.8981 86.0546 24.6395 85.8936 24.415C85.7327 24.1905 85.529 23.9953 85.2828 23.8294C85.0461 23.6537 84.7856 23.4585 84.5015 23.2438C84.2174 23.0291 83.9523 22.8144 83.706 22.5996C83.4693 22.3752 83.2704 22.097 83.1094 21.7652C82.9484 21.4236 82.8679 21.0527 82.8679 20.6525C82.8679 19.9595 83.1426 19.3935 83.6918 18.9543C84.2506 18.5053 84.9419 18.2808 85.7658 18.2808C86.5992 18.2808 87.2053 18.4467 87.5841 18.7786C87.9724 19.1104 88.1665 19.5008 88.1665 19.9498C88.1665 20.389 88.0292 20.7647 87.7545 21.0771C87.4894 21.3894 87.1437 21.5456 86.7176 21.5456C86.5092 21.5456 86.2725 21.5016 86.0073 21.4138C86.2156 21.2284 86.3766 21.0185 86.4903 20.7843C86.6039 20.5403 86.6607 20.3011 86.6607 20.0669C86.6607 19.8327 86.566 19.6375 86.3766 19.4813C86.1872 19.3154 85.9599 19.2324 85.6948 19.2324Z" fill="white"/>
<path d="M91.4331 24.049C91.4331 24.5077 91.5135 24.8835 91.6745 25.1763C91.845 25.4593 92.0818 25.6008 92.3848 25.6008C92.8299 25.6008 93.2513 25.3324 93.6491 24.7956C94.0563 24.2588 94.3783 23.5708 94.615 22.7314C94.8613 21.892 94.9844 21.0966 94.9844 20.3451C94.9844 19.5838 94.956 18.9689 94.8991 18.5004C95.1833 18.4809 95.3821 18.4711 95.4958 18.4711C95.9788 18.4711 96.3434 18.5639 96.5896 18.7493C96.8358 18.9347 96.9589 19.2666 96.9589 19.7448C96.9589 19.9303 96.8453 20.6867 96.618 22.014C96.3907 23.3316 96.2771 24.3906 96.2771 25.1909C96.2771 25.9815 96.4239 26.6842 96.7174 27.2991C96.0072 27.1722 95.4863 26.9038 95.1548 26.4939C94.8234 26.0742 94.6577 25.474 94.6577 24.6932C94.6577 24.5565 94.6766 24.293 94.7145 23.9026C94.4588 24.8298 94.0042 25.5764 93.3508 26.1425C92.6973 26.7086 92.0534 26.9917 91.4188 26.9917C90.7938 26.9917 90.2872 26.7525 89.8989 26.2743C89.5201 25.7863 89.3307 25.0982 89.3307 24.21C89.3307 23.3219 89.4822 22.463 89.7852 21.6334C90.0978 20.794 90.5618 20.0864 91.1774 19.5106C91.7929 18.925 92.4795 18.6322 93.2371 18.6322C93.6728 18.6322 94.1179 18.7395 94.5724 18.9543C93.6159 19.3056 92.8536 19.9986 92.2854 21.0332C91.7172 22.058 91.4331 23.0632 91.4331 24.049Z" fill="white"/>
<path d="M104.996 19.3788C104.996 19.7204 104.854 20.184 104.57 20.7696C104.286 21.3455 103.94 21.9848 103.533 22.6875C103.125 23.3902 102.718 24.1417 102.311 24.942C101.904 25.7326 101.558 26.6257 101.274 27.6212C100.99 28.6265 100.848 29.6073 100.848 30.5638C100.848 31.003 100.881 31.4227 100.947 31.8229C100.18 31.6765 99.6593 31.4569 99.3847 31.1641C99.1101 30.881 98.9727 30.5443 98.9727 30.1539C98.9727 29.6171 99.3516 28.5581 100.109 26.977C99.9671 26.3719 99.7919 25.4252 99.5836 24.1368C99.3752 22.8388 99.1621 21.7115 98.9443 20.755C98.736 19.7985 98.4945 19.086 98.2199 18.6175C98.7407 18.3638 99.1574 18.2369 99.4699 18.2369C99.7824 18.2369 100.019 18.3101 100.18 18.4565C100.341 18.6029 100.474 18.8957 100.578 19.3349C100.692 19.7643 100.772 20.1206 100.819 20.4036C100.952 21.3406 101.018 21.8628 101.018 21.9701C101.018 22.0775 101.056 22.5167 101.132 23.2877C101.208 24.049 101.265 24.5516 101.302 24.7956C102.988 21.4284 103.831 19.1787 103.831 18.0466C104.608 18.4565 104.996 18.9006 104.996 19.3788Z" fill="white"/>
<path d="M107.775 24.049C107.775 24.5077 107.855 24.8835 108.016 25.1763C108.187 25.4593 108.423 25.6008 108.726 25.6008C109.172 25.6008 109.593 25.3324 109.991 24.7956C110.398 24.2588 110.72 23.5708 110.957 22.7314C111.203 21.892 111.326 21.0966 111.326 20.3451C111.326 19.5838 111.298 18.9689 111.241 18.5004C111.525 18.4809 111.724 18.4711 111.837 18.4711C112.32 18.4711 112.685 18.5639 112.931 18.7493C113.177 18.9347 113.301 19.2666 113.301 19.7448C113.301 19.9303 113.187 20.6867 112.96 22.014C112.732 23.3316 112.619 24.3906 112.619 25.1909C112.619 25.9815 112.766 26.6842 113.059 27.2991C112.349 27.1722 111.828 26.9038 111.496 26.4939C111.165 26.0742 110.999 25.474 110.999 24.6932C110.999 24.5565 111.018 24.293 111.056 23.9026C110.8 24.8298 110.346 25.5764 109.692 26.1425C109.039 26.7086 108.395 26.9917 107.761 26.9917C107.135 26.9917 106.629 26.7525 106.241 26.2743C105.862 25.7863 105.672 25.0982 105.672 24.21C105.672 23.3219 105.824 22.463 106.127 21.6334C106.439 20.794 106.903 20.0864 107.519 19.5106C108.135 18.925 108.821 18.6322 109.579 18.6322C110.014 18.6322 110.46 18.7395 110.914 18.9543C109.958 19.3056 109.195 19.9986 108.627 21.0332C108.059 22.058 107.775 23.0632 107.775 24.049Z" fill="white"/>
<path d="M120.514 18.3687C121.072 18.3687 121.47 18.5492 121.707 18.9103C121.953 19.2617 122.076 19.7448 122.076 20.3597C122.076 20.9648 121.981 21.8188 121.792 22.9217C121.612 24.0246 121.522 24.8298 121.522 25.3373C121.522 25.8351 121.584 26.2011 121.707 26.4353C121.83 26.6598 122.038 26.855 122.332 27.0209C122.209 27.0307 122.034 27.0356 121.806 27.0356C121.011 27.0356 120.443 26.9087 120.102 26.6549C119.77 26.4012 119.604 25.9571 119.604 25.3227C119.604 24.9616 119.699 24.2588 119.889 23.2145C120.078 22.1604 120.173 21.3748 120.173 20.8575C120.173 20.2133 119.983 19.8912 119.604 19.8912C119.387 19.8912 119.14 20.023 118.866 20.2865C118.591 20.55 118.326 20.9111 118.07 21.3699C117.815 21.8188 117.601 22.3996 117.431 23.112C117.261 23.8245 117.175 24.537 117.175 25.2495C117.175 25.9522 117.204 26.4744 117.261 26.816C116.957 26.8355 116.759 26.8453 116.664 26.8453C116.124 26.8453 115.736 26.7477 115.499 26.5525C115.262 26.3573 115.144 26.0352 115.144 25.5862C115.144 25.391 115.243 24.6395 115.442 23.3316C115.641 22.0238 115.741 20.9844 115.741 20.2133C115.741 19.4325 115.66 18.7151 115.499 18.0612C116.19 18.2857 116.673 18.6078 116.948 19.0275C117.223 19.4374 117.36 19.9107 117.36 20.4475C117.36 20.9746 117.303 21.5895 117.189 22.2922C117.502 21.1991 117.994 20.2719 118.667 19.5106C119.339 18.7493 119.955 18.3687 120.514 18.3687Z" fill="white"/>
<path fill-rule="evenodd" clip-rule="evenodd" d="M57.2961 26.8321C57.1002 26.6139 56.9485 26.3112 56.8294 25.9454L56.8288 25.9434C56.721 25.6034 56.5244 24.7699 56.2407 23.4585C55.9987 23.5534 55.7098 23.6004 55.3893 23.6127L55.3884 23.6127L53.1613 23.6906C52.6267 25.0079 52.2316 26.1787 51.9743 27.2043L51.8991 27.5039L51.6068 27.4008C51.143 27.2372 50.771 27.0549 50.5101 26.8463C50.2479 26.6369 50.0664 26.3738 50.0664 26.0553C50.0664 25.9617 50.0975 25.8485 50.1311 25.7446C50.1682 25.6298 50.2223 25.4867 50.2916 25.3175C50.4306 24.9785 50.6374 24.5195 50.9106 23.9424C51.4552 22.7916 52.0704 21.4865 52.756 20.0268L52.7564 20.0261C53.4513 18.5573 53.9162 17.5004 54.1557 16.8488L54.361 16.2922C54.2745 16.1693 54.1266 15.9814 53.9084 15.722L53.6425 15.4058L54.0353 15.2754C54.3903 15.1575 54.7131 15.0925 54.998 15.0925C55.2622 15.0925 55.4921 15.1117 55.6808 15.1557C55.8803 15.2001 56.0608 15.2788 56.2168 15.3959C56.3565 15.4862 56.4807 15.5838 56.5877 15.6896C56.7269 15.8174 56.8384 15.9925 56.9306 16.1959C57.0168 16.3773 57.0897 16.5466 57.149 16.7037C57.2116 16.8604 57.2755 17.0733 57.3416 17.336C57.4167 17.5982 57.4744 17.8319 57.5137 18.036C57.562 18.2297 57.6187 18.4986 57.6835 18.8399C57.7581 19.1742 57.8327 19.4992 57.9072 19.8148C57.9833 20.137 58.1155 20.7486 58.3033 21.6465C58.4906 22.5326 58.6355 23.1985 58.7382 23.6451C58.848 24.0732 58.9997 24.559 59.194 25.103C59.3958 25.6418 59.6016 26.0519 59.8076 26.3426L59.9994 26.6133L59.6999 26.7573C59.1425 27.0254 58.6549 27.1783 58.2529 27.1783C57.8727 27.1783 57.5344 27.0836 57.3012 26.8376L57.2961 26.8321ZM58.9292 25.1991C58.732 24.647 58.577 24.151 58.4643 23.7112C58.3609 23.262 58.2153 22.5929 58.0275 21.7039C57.8396 20.8055 57.7081 20.1973 57.6329 19.8791C57.5578 19.5609 57.4826 19.2334 57.4075 18.8965C57.3417 18.5503 57.2854 18.2836 57.2384 18.0964C57.2008 17.8999 57.1445 17.6706 57.0693 17.4086C57.0036 17.1466 56.9425 16.9454 56.8861 16.805C56.8298 16.6553 56.7593 16.4915 56.6748 16.3137C56.5902 16.1266 56.4963 15.9862 56.393 15.8926C56.299 15.799 56.1863 15.7101 56.0548 15.6259C55.9327 15.5323 55.7871 15.4668 55.618 15.4294C55.4583 15.392 55.2517 15.3732 54.998 15.3732C54.8278 15.3732 54.6347 15.4005 54.4188 15.4551C54.325 15.4788 54.2269 15.5077 54.1244 15.5417C54.1951 15.6258 54.2595 15.7035 54.3175 15.7749C54.4982 15.9975 54.6171 16.1584 54.674 16.2576L54.4203 16.9454C54.1761 17.6098 53.7064 18.6766 53.0113 20.1458C52.3256 21.6056 51.7103 22.9111 51.1655 24.0621C50.6206 25.2131 50.3482 25.8775 50.3482 26.0553C50.3482 26.4161 50.7107 26.743 51.4356 27.0361C51.5192 27.0699 51.6076 27.1033 51.7009 27.1362C51.7235 27.0463 51.747 26.9553 51.7717 26.8633C52.0444 25.8442 52.4435 24.6952 52.969 23.4164L55.3785 23.3322C55.7077 23.3196 55.9751 23.2687 56.1806 23.1795C56.2799 23.1364 56.3648 23.0844 56.4352 23.0234C56.4574 23.1268 56.4791 23.2277 56.5003 23.3258C56.7933 24.6828 56.9924 25.5272 57.0975 25.8588C57.2102 26.2051 57.3464 26.4671 57.5061 26.6449C57.6658 26.8133 57.9147 26.8975 58.2529 26.8975C58.5355 26.8975 58.8902 26.8061 59.317 26.6231C59.401 26.5871 59.4878 26.5476 59.5774 26.5045C59.5256 26.4314 59.4743 26.3521 59.4235 26.2667C59.2532 25.9802 59.0884 25.6243 58.9292 25.1991ZM54.705 20.1637C54.3567 20.9316 54.0703 21.5759 53.8458 22.0969H55.9585C55.6696 20.7811 55.4325 19.742 55.247 18.9783C55.1034 19.2942 54.9227 19.6894 54.705 20.1637ZM55.1377 18.5369C54.9791 18.8884 54.7493 19.392 54.4485 20.0475C54.0747 20.8715 53.7716 21.5547 53.5392 22.0969C53.4971 22.1951 53.4574 22.2887 53.4199 22.3777H56.3084C56.2877 22.2828 56.2672 22.1892 56.247 22.0969C55.9055 20.5399 55.6348 19.3619 55.4349 18.5631C55.3944 18.4014 55.3568 18.2552 55.3221 18.1245C55.2783 18.2241 55.2169 18.3616 55.1377 18.5369ZM60.6689 26.4684L60.6677 26.4665C60.5417 26.2571 60.4554 26.0461 60.42 25.8348L60.4197 25.8324C60.3879 25.6319 60.3739 25.3424 60.3739 24.9745C60.3739 24.5873 60.5325 23.1267 60.841 20.6308L60.8412 20.6298C61.1607 18.1203 61.318 16.4152 61.318 15.4996C61.318 15.0363 61.304 14.6597 61.2769 14.3673C61.2492 14.0686 61.2096 13.88 61.1691 13.779L60.9604 13.2593L61.5033 13.4035C62.236 13.5981 62.7922 13.9086 63.1011 14.3733C63.4087 14.8131 63.5443 15.4108 63.5443 16.1312C63.5443 16.5643 63.4049 17.9243 63.1336 20.1792C62.8618 22.4388 62.727 24.2512 62.727 25.6202C62.727 25.91 62.7453 26.3236 62.7827 26.8642L62.8044 27.1778L62.4892 27.164C62.0468 27.1446 61.6699 27.086 61.3684 26.9797C61.0672 26.8735 60.8177 26.7109 60.6689 26.4684ZM61.7556 13.7735C62.2846 13.9571 62.6554 14.2095 62.8679 14.531C63.131 14.9053 63.2625 15.4387 63.2625 16.1312C63.2625 16.543 63.1263 17.8812 62.8538 20.1458C62.5814 22.4104 62.4452 24.2352 62.4452 25.6202C62.4452 25.8656 62.4578 26.1928 62.4831 26.6016C62.4886 26.6916 62.4948 26.7856 62.5016 26.8835C62.4027 26.8792 62.3081 26.8728 62.2178 26.8645C61.5283 26.8007 61.0921 26.6199 60.9094 26.322C60.7967 26.1349 60.7262 25.9571 60.698 25.7886C60.6698 25.6108 60.6558 25.3394 60.6558 24.9745C60.6558 24.6095 60.8107 23.1731 61.1207 20.6652C61.4401 18.1572 61.5998 16.4354 61.5998 15.4996C61.5998 14.8273 61.5707 14.3241 61.5125 13.9899C61.4897 13.8589 61.4625 13.7538 61.4307 13.6748C61.5449 13.7051 61.6532 13.738 61.7556 13.7735ZM67.3615 21.2238C67.639 20.6432 67.9861 20.1248 68.403 19.6685C69.07 18.9386 69.6805 18.5737 70.2348 18.5737C70.789 18.5737 71.1835 18.7468 71.4184 19.093C71.6626 19.4299 71.7847 19.8931 71.7847 20.4827C71.7847 21.0629 71.6908 21.8817 71.5029 22.9391C71.3244 23.9966 71.2352 24.7686 71.2352 25.2552C71.2352 25.7325 71.2962 26.0834 71.4184 26.308C71.4777 26.4127 71.5571 26.5107 71.6565 26.6021C71.7615 26.6986 71.8888 26.7878 72.0383 26.8695C71.9227 26.8783 71.7607 26.883 71.5524 26.8835C71.5407 26.8835 71.5289 26.8835 71.517 26.8835C70.7279 26.8835 70.1643 26.7619 69.8262 26.5185C69.4974 26.2752 69.333 25.8495 69.333 25.2412C69.333 24.8949 69.4269 24.2212 69.6148 23.2199C69.8027 22.2092 69.8966 21.4559 69.8966 20.9599C69.8966 20.3423 69.7087 20.0335 69.333 20.0335C69.1169 20.0335 68.8727 20.1598 68.6003 20.4125C68.3279 20.6652 68.0649 21.0114 67.8112 21.4512C67.5576 21.8817 67.3462 22.4385 67.1772 23.1216C67.0081 23.8047 66.9235 24.4879 66.9235 25.171C66.9235 25.6759 66.9394 26.0835 66.971 26.394C66.9816 26.4978 66.9939 26.5908 67.0081 26.673C66.9005 26.6796 66.8062 26.6851 66.7252 26.6894C66.5796 26.6972 66.4766 26.701 66.4163 26.701C65.8808 26.701 65.4957 26.6074 65.2609 26.4203C65.026 26.2331 64.9086 25.9243 64.9086 25.4939C64.9086 25.3067 65.0072 24.5861 65.2045 23.3322C65.4018 22.0782 65.5004 21.0816 65.5004 20.3423C65.5004 19.7192 65.4451 19.1383 65.3345 18.5995C65.3122 18.4909 65.2877 18.384 65.2609 18.2789C65.3719 18.3137 65.4774 18.351 65.5776 18.3908C66.0963 18.5965 66.4698 18.8681 66.6981 19.2053C66.9705 19.5984 67.1067 20.0522 67.1067 20.5669C67.1067 20.7505 67.0993 20.9453 67.0844 21.1511C67.0583 21.5118 67.0094 21.9066 66.9376 22.3355C67.0538 21.9426 67.1951 21.572 67.3615 21.2238ZM67.3885 20.5734C67.6211 20.1781 67.8897 19.8133 68.1946 19.4796C68.8759 18.734 69.5575 18.2929 70.2348 18.2929C70.8476 18.2929 71.3456 18.4873 71.6494 18.9322C71.9383 19.3327 72.0665 19.8598 72.0665 20.4827C72.0665 21.0874 71.9692 21.9249 71.7806 22.9867C71.6025 24.0421 71.517 24.7939 71.517 25.2552C71.517 25.7177 71.5778 26.0101 71.6649 26.1721C71.7542 26.3281 71.9147 26.4818 72.1738 26.6233L73.0043 27.077L72.0599 27.1494C71.927 27.1596 71.7447 27.1642 71.517 27.1642C70.7139 27.1642 70.0742 27.0433 69.6612 26.7461L69.6581 26.7439C69.2277 26.4254 69.0512 25.8929 69.0512 25.2412C69.0512 24.8647 69.1507 24.1656 69.3378 23.1684C69.525 22.1609 69.6148 21.4288 69.6148 20.9599C69.6148 20.6703 69.5691 20.5 69.5147 20.4106C69.4741 20.3438 69.4267 20.3142 69.333 20.3142C69.2246 20.3142 69.0473 20.3814 68.7923 20.618C68.5466 20.8459 68.2999 21.1673 68.0556 21.5911L68.0543 21.5933C67.8188 21.9931 67.6158 22.5221 67.4508 23.1888C67.287 23.8506 67.2053 24.5112 67.2053 25.171C67.2053 25.8416 67.2337 26.3225 67.2858 26.6255L67.3389 26.9336L67.0257 26.9531C66.727 26.9717 66.5206 26.9818 66.4163 26.9818C65.8613 26.9818 65.3958 26.8874 65.0848 26.6395C64.7577 26.3788 64.6268 25.9708 64.6268 25.4939C64.6268 25.377 64.655 25.1287 64.7034 24.7751C64.7531 24.4121 64.8274 23.9164 64.9261 23.2887C65.1225 22.0405 65.2186 21.0603 65.2186 20.3423C65.2186 19.6134 65.1408 18.9491 64.9877 18.3479L64.8634 17.8598L65.3456 18.0111C66.0636 18.2365 66.6092 18.5728 66.9309 19.0471C67.2377 19.4904 67.3885 20.0004 67.3885 20.5669C67.3885 20.5691 67.3885 20.5712 67.3885 20.5734ZM78.1091 19.2869C77.3309 19.6545 76.6974 20.2683 76.2088 21.1284C75.6451 22.111 75.3633 23.0748 75.3633 24.02C75.3633 24.4598 75.4432 24.8201 75.6029 25.1008C75.7719 25.3722 76.0068 25.5079 76.3074 25.5079C76.7489 25.5079 77.1669 25.2505 77.5614 24.7359C77.9653 24.2212 78.2847 23.5614 78.5196 22.7567C78.7638 21.9519 78.8859 21.1892 78.8859 20.4686C78.8859 20.0275 78.8756 19.6376 78.855 19.299C78.8484 19.1901 78.8407 19.0866 78.832 18.9883C78.8317 18.9853 78.8315 18.9823 78.8312 18.9794C78.8223 18.8809 78.8124 18.7878 78.8014 18.7C78.8014 18.7 78.8014 18.7 78.8014 18.7C78.9073 18.693 79.0012 18.6872 79.0832 18.6829C79.2195 18.6756 79.3228 18.6719 79.3932 18.6719C79.8722 18.6719 80.2339 18.7608 80.4781 18.9386C80.7224 19.1164 80.8445 19.4346 80.8445 19.8931C80.8445 20.0709 80.7318 20.7962 80.5063 22.0688C80.2809 23.3322 80.1681 24.3475 80.1681 25.1149C80.1681 25.7419 80.2678 26.3113 80.467 26.8231C80.5087 26.9299 80.5546 27.0343 80.6049 27.1362C80.4847 27.1154 80.3699 27.0907 80.2606 27.062C79.7295 26.9227 79.3277 26.6901 79.055 26.3641C78.7517 25.9929 78.5883 25.4743 78.5648 24.8083C78.5628 24.7524 78.5618 24.6955 78.5618 24.6376C78.5618 24.5066 78.5806 24.2539 78.6182 23.8796C78.5416 24.1481 78.447 24.4007 78.3345 24.6376C78.3171 24.6741 78.2994 24.7102 78.2811 24.746C78.0263 25.2466 77.6878 25.6737 77.2655 26.0273C76.6174 26.57 75.9786 26.8414 75.3492 26.8414C74.7293 26.8414 74.2267 26.6121 73.8416 26.1536C73.4658 25.6857 73.278 25.026 73.278 24.1744C73.278 23.3228 73.4283 22.4993 73.7288 21.7039C74.0388 20.8991 74.4991 20.2207 75.1097 19.6685C75.7203 19.1071 76.4013 18.8263 77.1528 18.8263C77.4621 18.8263 77.7762 18.8791 78.0952 18.9846C78.2218 19.0264 78.3492 19.0766 78.4773 19.1351C78.3512 19.1799 78.2284 19.2305 78.1091 19.2869ZM78.3191 25.2474C78.0806 25.6228 77.79 25.9548 77.4469 26.2422C76.7655 26.8127 76.0648 27.1221 75.3492 27.1221C74.649 27.1221 74.0661 26.8584 73.6254 26.3337L73.6215 26.329C73.1919 25.7941 72.9962 25.0634 72.9962 24.1744C72.9962 23.2891 73.1525 22.4321 73.4651 21.605L73.4657 21.6033C73.7906 20.76 74.2749 20.0445 74.9193 19.4616C75.5758 18.8582 76.3231 18.5456 77.1528 18.5456C77.6115 18.5456 78.0731 18.6506 78.5356 18.8535C78.5312 18.8128 78.5266 18.7732 78.5217 18.7348L78.4847 18.4397L78.7826 18.4199C79.0642 18.4012 79.27 18.3912 79.3932 18.3912C79.8997 18.3912 80.3311 18.4839 80.6444 18.712C80.9931 18.9658 81.1263 19.3934 81.1263 19.8931C81.1263 20.0086 81.0935 20.2592 81.0384 20.6134C80.9816 20.9789 80.8967 21.4806 80.7838 22.1176C80.5596 23.374 80.4499 24.3713 80.4499 25.1149C80.4499 25.8365 80.5884 26.4668 80.8578 27.0122L81.1022 27.507L80.5568 27.4128C79.8121 27.2842 79.2242 27.005 78.8385 26.5439L78.8364 26.5414C78.5566 26.1989 78.3894 25.7625 78.3191 25.2474ZM78.5784 19.3973L78.5719 19.3996C77.6956 19.7107 76.9891 20.3249 76.454 21.2667L76.4534 21.2677C75.9093 22.2162 75.6451 23.1325 75.6451 24.02C75.6451 24.4252 75.7184 24.732 75.8452 24.9575C75.9665 25.1495 76.1134 25.2272 76.3074 25.2272C76.6254 25.2272 76.97 25.0448 77.3375 24.5655L77.3394 24.5629C77.716 24.0831 78.0214 23.458 78.249 22.6783L78.2498 22.6754C78.4874 21.8927 78.6041 21.1575 78.6041 20.4686C78.6041 20.0661 78.5954 19.7092 78.5784 19.3973ZM85.1622 19.8858C85.034 19.9903 84.9556 20.1462 84.9556 20.3985C84.9556 20.6472 85.0382 20.887 85.2197 21.1238C85.3244 21.2539 85.4405 21.3767 85.5682 21.4924L85.8141 21.2809C85.9943 21.1258 86.1296 20.9542 86.2243 20.7662C86.3209 20.5651 86.3646 20.3778 86.3646 20.2019C86.3646 20.069 86.3147 19.9603 86.1886 19.8597L86.182 19.8545C86.0486 19.7415 85.8892 19.6826 85.6883 19.6826C85.4956 19.6826 85.3255 19.7454 85.1679 19.881L85.1622 19.8858ZM86.4773 20.8897C86.4099 21.024 86.3258 21.1499 86.2248 21.2674C86.1569 21.3465 86.0814 21.4218 85.9982 21.4933C86.1106 21.5293 86.2179 21.5576 86.32 21.5782C86.4568 21.6059 86.5844 21.6197 86.7028 21.6197C87.1255 21.6197 87.4683 21.4699 87.7314 21.1705C88.0038 20.871 88.14 20.5108 88.14 20.0896C88.14 19.6592 87.9474 19.2849 87.5623 18.9667C87.1865 18.6485 86.5853 18.4894 85.7587 18.4894C84.9415 18.4894 84.2557 18.7047 83.7015 19.1351C83.1567 19.5562 82.8843 20.099 82.8843 20.7634C82.8843 21.1471 82.9641 21.5027 83.1238 21.8302C83.2835 22.1484 83.4808 22.4151 83.7156 22.6303C83.9598 22.8362 84.2229 23.0421 84.5047 23.2479C84.7865 23.4538 85.0448 23.641 85.2796 23.8094C85.5239 23.9685 85.7258 24.1557 85.8855 24.3709C86.0452 24.5861 86.1251 24.8341 86.1251 25.1149C86.1251 25.3862 86.0076 25.6108 85.7728 25.7886C85.5474 25.9571 85.2655 26.0413 84.9274 26.0413C84.5892 26.0413 84.3215 25.9337 84.1242 25.7184C83.927 25.5032 83.8283 25.2178 83.8283 24.8622C83.8283 24.5913 83.9156 24.3312 84.0901 24.082C84.1446 24.0041 84.2077 23.9273 84.2792 23.8515C84.1828 23.8131 84.0826 23.7845 83.9788 23.7658C83.8803 23.7481 83.7785 23.7392 83.6733 23.7392C83.26 23.7392 82.9125 23.8796 82.6307 24.1603C82.3582 24.4317 82.222 24.792 82.222 25.2412C82.222 25.6904 82.4663 26.0881 82.9547 26.4343C83.4526 26.7806 84.1336 26.9537 84.9978 26.9537C85.862 26.9537 86.5853 26.7244 87.1677 26.2659C87.7501 25.8073 88.0413 25.2412 88.0413 24.5674C88.0132 24.1744 87.877 23.8188 87.6327 23.5006C87.3885 23.1731 87.102 22.9017 86.7732 22.6865C86.4538 22.4619 86.1345 22.2466 85.8151 22.0408C85.4957 21.8255 85.2233 21.5776 84.9978 21.2968C84.7818 21.0161 84.6738 20.7166 84.6738 20.3985C84.6738 20.0803 84.7771 19.837 84.9837 19.6685C85.1904 19.4907 85.4252 19.4018 85.6883 19.4018C85.9513 19.4018 86.1767 19.4814 86.3646 19.6405C86.5525 19.7902 86.6464 19.9773 86.6464 20.2019C86.6464 20.4265 86.59 20.6558 86.4773 20.8897ZM85.9707 21.8067C86.2912 22.0134 86.6117 22.2293 86.932 22.4545C87.2872 22.6877 87.5959 22.9808 87.8578 23.3316C88.1341 23.6922 88.2903 24.0994 88.3224 24.5474L88.3232 24.5574V24.5674C88.3232 25.3362 87.985 25.9803 87.3425 26.4861C86.7024 26.9901 85.9146 27.2344 84.9978 27.2344C84.0994 27.2344 83.3548 27.0549 82.7934 26.6645L82.7913 26.6631C82.2554 26.2832 81.9402 25.8097 81.9402 25.2412C81.9402 24.7312 82.0971 24.2948 82.4314 23.9618C82.7682 23.6263 83.1884 23.4585 83.6733 23.4585C83.9228 23.4585 84.1605 23.5019 84.3839 23.5909L84.6358 23.6913C84.5396 23.6214 84.4403 23.5491 84.338 23.4743C84.0514 23.265 83.7832 23.0551 83.5336 22.8446L83.5291 22.8409L83.5248 22.8369C83.262 22.596 83.0449 22.3008 82.8718 21.9558L82.8703 21.9529C82.691 21.5851 82.6025 21.1872 82.6025 20.7634C82.6025 20.0089 82.9179 19.3855 83.5288 18.9133C84.1402 18.4386 84.8896 18.2087 85.7587 18.2087C86.6097 18.2087 87.2922 18.3703 87.7435 18.7517C88.181 19.1136 88.4218 19.5625 88.4218 20.0896C88.4218 20.5764 88.2622 21.0041 87.9418 21.3572C87.622 21.7203 87.2005 21.9004 86.7028 21.9004C86.4589 21.9004 86.1941 21.8509 85.912 21.7606L85.8972 21.7559C85.9214 21.773 85.9459 21.7899 85.9707 21.8067ZM84.7437 23.7695L84.4844 24.0439C84.2212 24.3226 84.1101 24.5936 84.1101 24.8622C84.1101 25.1639 84.1924 25.3765 84.3323 25.5292C84.4677 25.6768 84.6548 25.7606 84.9274 25.7606C85.2167 25.7606 85.4356 25.6894 85.603 25.5646C85.7739 25.4349 85.8433 25.2902 85.8433 25.1149C85.8433 24.8911 85.7809 24.7022 85.6589 24.5378C85.5207 24.3516 85.3441 24.1868 85.1254 24.0444L85.1201 24.0409L85.115 24.0373C84.9971 23.9527 84.8733 23.8634 84.7437 23.7695ZM94.1259 19.2869C93.3476 19.6545 92.7142 20.2683 92.2255 21.1284C91.6619 22.111 91.3801 23.0748 91.3801 24.02C91.3801 24.4598 91.4599 24.8201 91.6196 25.1008C91.7887 25.3722 92.0236 25.5079 92.3242 25.5079C92.7657 25.5079 93.1837 25.2505 93.5782 24.7359C93.9821 24.2212 94.3015 23.5614 94.5363 22.7567C94.7806 21.9519 94.9027 21.1892 94.9027 20.4686C94.9027 20.0275 94.8924 19.6376 94.8718 19.299C94.8652 19.1901 94.8575 19.0866 94.8488 18.9883C94.8485 18.9853 94.8482 18.9823 94.848 18.9794C94.8391 18.8809 94.8292 18.7878 94.8181 18.7C94.8181 18.7 94.8181 18.7 94.8181 18.7C94.924 18.693 95.018 18.6872 95.1 18.6829C95.2362 18.6756 95.3396 18.6719 95.41 18.6719C95.889 18.6719 96.2507 18.7608 96.4949 18.9386C96.7391 19.1164 96.8613 19.4346 96.8613 19.8931C96.8613 20.0709 96.7485 20.7962 96.5231 22.0688C96.2976 23.3322 96.1849 24.3475 96.1849 25.1149C96.1849 25.7419 96.2846 26.3113 96.4838 26.8231C96.5254 26.9299 96.5714 27.0343 96.6217 27.1362C96.5015 27.1154 96.3867 27.0907 96.2774 27.062C95.7463 26.9227 95.3444 26.6901 95.0718 26.3641C94.7684 25.9929 94.605 25.4743 94.5816 24.8083C94.5796 24.7524 94.5786 24.6955 94.5786 24.6376C94.5786 24.5066 94.5974 24.2539 94.635 23.8796C94.5584 24.1481 94.4638 24.4007 94.3512 24.6376C94.3339 24.6741 94.3161 24.7102 94.2979 24.746C94.0431 25.2466 93.7046 25.6737 93.2823 26.0273C92.6341 26.57 91.9954 26.8414 91.366 26.8414C90.746 26.8414 90.2435 26.6121 89.8583 26.1536C89.4826 25.6857 89.2947 25.026 89.2947 24.1744C89.2947 23.3228 89.445 22.4993 89.7456 21.7039C90.0556 20.8991 90.5159 20.2207 91.1265 19.6685C91.7371 19.1071 92.4181 18.8263 93.1696 18.8263C93.4789 18.8263 93.793 18.8791 94.1119 18.9846C94.2386 19.0264 94.3659 19.0766 94.4941 19.1351C94.3679 19.1799 94.2452 19.2305 94.1259 19.2869ZM94.3358 25.2474C94.0974 25.6228 93.8068 25.9548 93.4636 26.2422C92.7823 26.8127 92.0816 27.1221 91.366 27.1221C90.6658 27.1221 90.0829 26.8584 89.6422 26.3337L89.6382 26.329C89.2087 25.7941 89.0129 25.0634 89.0129 24.1744C89.0129 23.2891 89.1693 22.4321 89.4819 21.605L89.4825 21.6033C89.8073 20.76 90.2917 20.0445 90.9361 19.4616C91.5926 18.8582 92.3398 18.5456 93.1696 18.5456C93.6282 18.5456 94.0898 18.6506 94.5524 18.8535C94.548 18.8128 94.5433 18.7732 94.5385 18.7348L94.5015 18.4397L94.7994 18.4199C95.0809 18.4012 95.2868 18.3912 95.41 18.3912C95.9164 18.3912 96.3479 18.4839 96.6612 18.712C97.0099 18.9658 97.1431 19.3934 97.1431 19.8931C97.1431 20.0086 97.1102 20.2592 97.0552 20.6134C96.9984 20.9789 96.9135 21.4806 96.8006 22.1176C96.5764 23.374 96.4667 24.3713 96.4667 25.1149C96.4667 25.8365 96.6051 26.4668 96.8746 27.0122L97.1189 27.507L96.5736 27.4128C95.8289 27.2842 95.241 27.005 94.8553 26.5439L94.8532 26.5414C94.5734 26.1989 94.4062 25.7625 94.3358 25.2474ZM94.5952 19.3973L94.5887 19.3996C93.7124 19.7107 93.0059 20.3249 92.4708 21.2667L92.4702 21.2677C91.9261 22.2162 91.6619 23.1325 91.6619 24.02C91.6619 24.4252 91.7352 24.732 91.862 24.9575C91.9833 25.1495 92.1302 25.2272 92.3242 25.2272C92.6421 25.2272 92.9868 25.0448 93.3542 24.5655L93.3562 24.5629C93.7327 24.0831 94.0382 23.458 94.2657 22.6783L94.2666 22.6754C94.5041 21.8927 94.6209 21.1575 94.6209 20.4686C94.6209 20.0661 94.6122 19.7092 94.5952 19.3973ZM104.662 21.0013L104.662 21.003C104.376 21.562 104.03 22.1806 103.624 22.8585C103.223 23.5274 102.821 24.2434 102.42 25.0066L102.419 25.0079C102.025 25.7466 101.689 26.5846 101.412 27.5235C101.137 28.4642 101.001 29.3783 101.001 30.2664C101.001 30.673 101.032 31.0595 101.095 31.4263L101.163 31.8229L100.766 31.7496C99.9958 31.6075 99.4038 31.3851 99.0665 31.0388C98.7438 30.7165 98.577 30.3234 98.577 29.8734C98.577 29.5631 98.6866 29.1409 98.8762 28.6287C99.0611 28.129 99.3326 27.5168 99.6884 26.794C99.5495 26.2021 99.3823 25.3194 99.1867 24.1504C98.9807 22.91 98.7705 21.8352 98.5562 20.9258L98.5556 20.9232C98.3512 20.0161 98.1197 19.3679 97.8708 18.9575L97.7094 18.6914L97.9916 18.5585C98.5193 18.3099 98.9785 18.1666 99.3519 18.1666C99.6999 18.1666 100.013 18.2449 100.243 18.4474C100.471 18.6481 100.619 19.0023 100.724 19.4298C100.837 19.8445 100.919 20.1943 100.968 20.4771L100.969 20.4843C101.035 20.9339 101.085 21.2853 101.118 21.5376C101.15 21.7787 101.17 21.9523 101.17 22.0267C101.17 22.1113 101.205 22.5123 101.281 23.2618C101.301 23.4555 101.319 23.6311 101.337 23.7888C101.964 22.5389 102.447 21.4749 102.788 20.5956C103.204 19.5212 103.396 18.7521 103.396 18.2648V17.8056L103.806 18.015C104.588 18.4137 105.115 18.9099 105.115 19.5422C105.115 19.9373 104.949 20.4302 104.662 21.0013ZM101.395 24.2978C102.778 21.5836 103.533 19.6751 103.659 18.5723C103.671 18.4617 103.678 18.3592 103.678 18.2648C103.776 18.3152 103.869 18.3661 103.955 18.4176C104.54 18.7676 104.833 19.1424 104.833 19.5422C104.833 19.8697 104.692 20.3142 104.41 20.8757C104.129 21.4278 103.786 22.0408 103.382 22.7145C102.978 23.3883 102.574 24.1089 102.17 24.8762C101.766 25.6342 101.423 26.4905 101.141 27.445C100.86 28.4089 100.719 29.3493 100.719 30.2664C100.719 30.5812 100.737 30.8855 100.774 31.1794C100.786 31.2787 100.801 31.3767 100.817 31.4736C100.714 31.4546 100.616 31.4343 100.522 31.4128C99.9211 31.275 99.503 31.0847 99.2674 30.8419C98.995 30.5705 98.8588 30.2477 98.8588 29.8734C98.8588 29.3587 99.2345 28.3433 99.986 26.8274C99.8451 26.2472 99.6713 25.3394 99.4647 24.1042C99.258 22.8596 99.0467 21.7788 98.8306 20.8617C98.6588 20.0991 98.4642 19.4983 98.2469 19.0593C98.2029 18.9703 98.1579 18.888 98.112 18.8123C98.2014 18.7702 98.2878 18.7317 98.371 18.6969C98.7686 18.5305 99.0956 18.4473 99.3519 18.4473C99.6619 18.4473 99.8968 18.5175 100.056 18.6579C100.216 18.7982 100.348 19.079 100.451 19.5001C100.564 19.9118 100.644 20.2534 100.691 20.5248C100.822 21.4232 100.888 21.9238 100.888 22.0267C100.888 22.1297 100.925 22.5508 101.001 23.2901C101.041 23.6794 101.075 23.9982 101.105 24.2465C101.13 24.4636 101.152 24.6267 101.17 24.7359C101.246 24.5876 101.321 24.4416 101.395 24.2978ZM110.335 19.2869C109.557 19.6545 108.924 20.2683 108.435 21.1284C107.871 22.111 107.59 23.0748 107.59 24.02C107.59 24.4598 107.669 24.8201 107.829 25.1008C107.998 25.3722 108.233 25.5079 108.534 25.5079C108.975 25.5079 109.393 25.2505 109.788 24.7359C110.192 24.2212 110.511 23.5614 110.746 22.7567C110.99 21.9519 111.112 21.1892 111.112 20.4686C111.112 20.0275 111.102 19.6376 111.081 19.299C111.075 19.1901 111.067 19.0866 111.058 18.9883C111.058 18.9853 111.058 18.9823 111.057 18.9794C111.049 18.8809 111.039 18.7878 111.028 18.7C111.028 18.7001 111.028 18.7 111.028 18.7C111.133 18.693 111.227 18.6872 111.309 18.6829C111.446 18.6756 111.549 18.6719 111.619 18.6719C112.098 18.6719 112.46 18.7608 112.704 18.9386C112.949 19.1164 113.071 19.4346 113.071 19.8931C113.071 20.0709 112.958 20.7962 112.732 22.0688C112.507 23.3322 112.394 24.3475 112.394 25.1149C112.394 25.7419 112.494 26.3113 112.693 26.8231C112.735 26.9299 112.781 27.0343 112.831 27.1362C112.711 27.1154 112.596 27.0907 112.487 27.062C111.956 26.9227 111.554 26.6901 111.281 26.3641C110.978 25.9929 110.814 25.4743 110.791 24.8083C110.789 24.7524 110.788 24.6955 110.788 24.6376C110.788 24.5066 110.807 24.2539 110.844 23.8796C110.768 24.1481 110.673 24.4007 110.561 24.6376C110.543 24.6741 110.526 24.7102 110.507 24.746C110.253 25.2466 109.914 25.6737 109.492 26.0273C108.844 26.57 108.205 26.8414 107.575 26.8414C106.955 26.8414 106.453 26.6121 106.068 26.1536C105.692 25.6857 105.504 25.026 105.504 24.1744C105.504 23.3228 105.654 22.4993 105.955 21.7039C106.265 20.8991 106.725 20.2207 107.336 19.6685C107.946 19.1071 108.628 18.8263 109.379 18.8263C109.688 18.8263 110.002 18.8791 110.321 18.9846C110.448 19.0264 110.575 19.0766 110.703 19.1351C110.577 19.1799 110.455 19.2305 110.335 19.2869ZM107.146 19.4613C106.501 20.0443 106.017 20.7599 105.692 21.6033L105.691 21.605C105.379 22.4321 105.222 23.2891 105.222 24.1744C105.222 25.0634 105.418 25.7941 105.848 26.329L105.852 26.3337C106.292 26.8584 106.875 27.1221 107.575 27.1221C108.291 27.1221 108.992 26.8127 109.673 26.2422C110.016 25.9548 110.307 25.6228 110.545 25.2474C110.616 25.7625 110.783 26.1989 111.063 26.5414L111.065 26.5439C111.45 27.005 112.038 27.2842 112.783 27.4128L113.328 27.507L113.084 27.0122C112.815 26.4668 112.676 25.8365 112.676 25.1149C112.676 24.3713 112.786 23.3743 113.01 22.118C113.123 21.4809 113.208 20.9789 113.265 20.6134C113.32 20.2592 113.352 20.0086 113.352 19.8931C113.352 19.3934 113.219 18.9658 112.871 18.712C112.557 18.4839 112.126 18.3912 111.619 18.3912C111.496 18.3912 111.29 18.4012 111.009 18.4199L110.711 18.4397L110.748 18.7348C110.753 18.7732 110.757 18.8128 110.762 18.8535C110.299 18.6506 109.838 18.5456 109.379 18.5456C108.549 18.5456 107.802 18.858 107.146 19.4613ZM110.805 19.3973L110.798 19.3996C109.922 19.7107 109.215 20.3249 108.68 21.2667L108.68 21.2677C108.136 22.2162 107.871 23.1325 107.871 24.02C107.871 24.4252 107.945 24.732 108.071 24.9575C108.193 25.1495 108.34 25.2272 108.534 25.2272C108.852 25.2272 109.196 25.0448 109.564 24.5655L109.566 24.5629C109.942 24.0831 110.248 23.458 110.475 22.6783L110.476 22.6754C110.714 21.8927 110.83 21.1575 110.83 20.4686C110.83 20.0661 110.822 19.7092 110.805 19.3973ZM117.352 21.2238C117.629 20.6432 117.977 20.1248 118.394 19.6685C119.06 18.9386 119.671 18.5737 120.225 18.5737C120.779 18.5737 121.174 18.7468 121.409 19.093C121.653 19.4299 121.775 19.8931 121.775 20.4827C121.775 21.0629 121.681 21.8817 121.493 22.9391C121.315 23.9966 121.226 24.7686 121.226 25.2552C121.226 25.7325 121.287 26.0834 121.409 26.308C121.468 26.4127 121.548 26.5107 121.647 26.6021C121.752 26.6986 121.879 26.7878 122.029 26.8695C121.913 26.8783 121.751 26.883 121.543 26.8835C121.531 26.8835 121.519 26.8835 121.507 26.8835C120.718 26.8835 120.155 26.7619 119.817 26.5185C119.488 26.2752 119.323 25.8495 119.323 25.2412C119.323 24.8949 119.417 24.2212 119.605 23.2199C119.793 22.2092 119.887 21.4559 119.887 20.9599C119.887 20.3423 119.699 20.0335 119.323 20.0335C119.107 20.0335 118.863 20.1598 118.591 20.4125C118.318 20.6652 118.055 21.0114 117.802 21.4512C117.548 21.8817 117.337 22.4385 117.168 23.1216C116.999 23.8047 116.914 24.4879 116.914 25.171C116.914 25.6759 116.93 26.0835 116.962 26.394C116.972 26.4978 116.984 26.5908 116.999 26.673C116.891 26.6796 116.797 26.6851 116.716 26.6894C116.57 26.6972 116.467 26.701 116.407 26.701C115.871 26.701 115.486 26.6074 115.251 26.4203C115.017 26.2331 114.899 25.9243 114.899 25.4939C114.899 25.3067 114.998 24.5861 115.195 23.3322C115.392 22.0782 115.491 21.0816 115.491 20.3423C115.491 19.7192 115.436 19.1383 115.325 18.5995C115.303 18.4909 115.278 18.384 115.251 18.2789C115.362 18.3137 115.468 18.351 115.568 18.3907C116.087 18.5965 116.46 18.8681 116.689 19.2053C116.961 19.5984 117.097 20.0522 117.097 20.5669C117.097 20.7505 117.09 20.9453 117.075 21.1511C117.049 21.5118 117 21.9066 116.928 22.3355C117.044 21.9426 117.186 21.572 117.352 21.2238ZM117.379 20.5734C117.612 20.1781 117.88 19.8133 118.185 19.4796C118.866 18.734 119.548 18.2929 120.225 18.2929C120.838 18.2929 121.336 18.4873 121.64 18.9322C121.929 19.3327 122.057 19.8598 122.057 20.4827C122.057 21.0874 121.96 21.9248 121.771 22.9866C121.593 24.042 121.507 24.7939 121.507 25.2552C121.507 25.7176 121.568 26.01 121.655 26.172C121.745 26.3281 121.905 26.4817 122.164 26.6233L122.995 27.077L122.05 27.1494C121.918 27.1596 121.735 27.1642 121.507 27.1642C120.704 27.1642 120.065 27.0433 119.652 26.7461L119.649 26.7439C119.218 26.4254 119.042 25.8929 119.042 25.2412C119.042 24.8647 119.141 24.1656 119.328 23.1684M117.379 20.5734C117.379 20.5712 117.379 20.5691 117.379 20.5669C117.379 20.0005 117.228 19.4905 116.921 19.0472" fill="white"/>
<defs>
<clipPath id="clip0_321_531">
<rect width="41.7681" height="48.3979" fill="white" transform="translate(0.341797)"/>
</clipPath>
</defs>
</svg>
