<?xml version="1.0" standalone="no"?>
<!DOCTYPE svg PUBLIC "-//W3C//DTD SVG 20010904//EN"
 "http://www.w3.org/TR/2001/REC-SVG-20010904/DTD/svg10.dtd">
<svg version="1.0" xmlns="http://www.w3.org/2000/svg"
 width="1449.000000pt" height="850.000000pt" viewBox="0 0 1449.000000 850.000000"
 preserveAspectRatio="xMidYMid meet">
<metadata>
Created by potrace 1.16, written by Peter Selinger 2001-2019
</metadata>
<g transform="translate(0.000000,850.000000) scale(0.100000,-0.100000)"
fill="#000000" stroke="none">
<path d="M2237 7968 c-25 -54 -40 -92 -39 -100 1 -5 -2 -8 -6 -8 -5 0 -9 -6
-10 -12 0 -7 -15 -58 -32 -112 -31 -100 -35 -117 -46 -171 -3 -16 -8 -37 -11
-45 -3 -8 -7 -31 -9 -50 -10 -98 -8 -95 -47 -94 -20 1 -34 -3 -31 -8 3 -4 14
-8 25 -8 10 0 19 -4 19 -10 0 -5 5 -10 11 -10 8 0 7 6 -2 18 -13 15 -12 16 3
4 9 -8 14 -20 11 -28 -5 -15 34 -34 77 -37 25 -2 25 -1 31 98 8 131 16 160 58
220 45 63 84 98 141 127 25 13 47 26 48 31 2 4 7 5 12 2 4 -3 6 3 4 12 -2 10
9 55 24 101 33 95 39 86 -73 97 -33 3 -78 8 -101 11 -39 6 -42 4 -57 -28z"/>
<path d="M6255 7993 c-77 -7 -82 -9 -89 -55 -4 -24 -9 -52 -11 -63 -2 -11 -6
-38 -10 -61 l-7 -41 53 -22 c30 -13 73 -41 95 -63 47 -45 46 -45 59 42 4 25 9
54 12 65 9 45 14 66 18 92 2 16 7 47 11 71 l7 42 -49 -2 c-27 -1 -67 -3 -89
-5z"/>
<path d="M3644 7952 c-65 -25 -140 -78 -210 -149 -62 -64 -60 -72 24 -74 28
-1 56 -2 61 -3 5 -1 30 18 56 41 72 66 82 71 185 80 56 4 71 2 100 -16 47 -28
59 -26 103 15 45 42 42 48 -40 89 -77 38 -201 45 -279 17z"/>
<path d="M4708 7956 c-20 -7 -57 -25 -83 -40 l-46 -27 43 -40 c25 -23 50 -37
61 -35 9 2 17 0 17 -5 0 -5 7 -9 15 -9 8 0 15 7 15 15 0 24 33 34 103 31 43
-2 81 -11 109 -26 50 -25 88 -58 88 -75 0 -8 25 -13 75 -14 68 -2 79 0 106 23
17 15 26 26 20 26 -5 0 -13 -4 -16 -10 -11 -17 -20 -12 -83 49 -38 36 -57 61
-49 64 6 3 2 6 -10 6 -12 1 -44 15 -71 32 -27 17 -67 35 -88 40 -56 13 -163
10 -206 -5z"/>
<path d="M2815 7836 c-41 -13 -99 -46 -92 -53 2 -2 16 3 31 11 23 12 31 11 62
-5 19 -9 65 -20 102 -24 37 -3 84 -8 105 -10 20 -2 37 0 37 5 0 6 -5 10 -11
10 -16 0 -73 60 -57 61 7 0 4 4 -7 9 -30 13 -124 10 -170 -4z"/>
<path d="M5570 7805 c-24 -24 -42 -46 -39 -49 11 -11 195 16 237 35 40 17 45
17 68 3 13 -9 24 -12 24 -6 0 5 -8 13 -17 16 -10 4 -31 14 -48 23 -19 11 -56
18 -105 20 l-75 2 -45 -44z"/>
<path d="M4074 7784 c-39 -19 -90 -70 -72 -72 7 -1 134 -4 281 -5 308 -4 328
0 267 53 -44 38 -66 45 -85 28 -47 -42 -84 -58 -154 -64 -43 -5 -70 -1 -113
16 -32 12 -58 26 -58 31 0 5 -6 9 -14 9 -8 0 -16 4 -18 10 -2 5 -17 2 -34 -6z"/>
<path d="M2768 6521 c-2 -4 -18 -17 -36 -30 l-32 -23 105 -104 105 -104 612 0
612 0 -114 112 c-105 105 -116 113 -159 118 -37 4 -45 8 -43 23 3 18 -14 18
-381 15 -264 -2 -384 -6 -384 -14 0 -11 124 -13 143 -2 6 4 11 1 11 -6 0 -10
-26 -13 -104 -14 -63 0 -103 3 -103 9 0 6 8 9 18 7 11 -2 21 1 23 7 2 5 -27
10 -68 11 -40 0 -70 -2 -68 -6 2 -4 -2 -7 -10 -7 -8 0 -12 4 -9 9 3 5 -21 8
-55 7 -33 -1 -62 -5 -63 -8z"/>
<path d="M3912 6515 c13 -6 22 -16 21 -22 -1 -6 48 -61 109 -122 l110 -111 54
0 c38 0 54 4 54 13 0 21 -22 37 -49 37 -40 0 -54 15 -60 62 -6 42 -7 43 -49
49 -46 6 -62 20 -62 56 0 12 -5 25 -12 29 -7 4 -8 3 -4 -4 8 -13 -6 -17 -18
-5 -12 12 -38 12 -33 -1 3 -6 -3 -12 -14 -12 -14 0 -16 3 -6 15 9 11 9 13 0 8
-6 -4 -14 -3 -17 2 -4 5 4 11 16 14 13 2 4 4 -20 4 -40 1 -42 0 -20 -12z"/>
<path d="M4628 6457 c-5 -58 -22 -85 -60 -92 -25 -5 -38 -22 -38 -52 0 -12
-10 -29 -22 -38 -21 -14 21 -15 490 -15 282 0 510 4 508 9 -3 5 -17 7 -30 6
-17 -2 -23 1 -19 10 3 9 -2 13 -16 12 -12 -1 -20 -6 -17 -12 2 -7 -10 -11 -35
-11 -21 1 -39 5 -39 10 0 5 -6 4 -13 -2 -7 -6 -18 -8 -24 -4 -14 9 -77 7 -92
-2 -5 -4 -12 -2 -16 3 -3 6 -13 8 -23 5 -14 -5 -14 -4 -2 4 9 7 19 7 26 2 6
-6 14 -7 17 -4 3 4 37 7 74 8 67 2 73 4 73 29 0 8 -4 7 -11 -3 -9 -13 -10 -13
-6 2 3 9 1 19 -6 22 -8 3 -7 5 2 5 11 1 10 6 -5 23 -10 12 -14 18 -7 15 19
-12 23 7 7 38 -12 23 -12 26 0 16 18 -15 27 -49 15 -57 -5 -3 -7 -10 -3 -15 4
-6 10 -6 19 1 9 8 14 5 18 -11 4 -13 10 -18 18 -13 8 5 10 3 4 -6 -6 -9 -4
-11 6 -5 12 8 12 6 0 -8 -10 -13 -17 -15 -27 -6 -9 7 -14 7 -14 1 0 -5 6 -15
14 -22 12 -9 17 -8 27 9 13 19 13 19 36 -5 13 -14 23 -22 23 -17 0 4 -19 26
-42 50 -35 36 -39 44 -28 58 7 8 9 15 4 15 -4 0 -3 5 4 12 19 19 14 24 -25 23
-24 0 -38 5 -40 15 -4 12 -3 12 5 1 7 -9 12 -10 16 -2 5 8 13 8 29 0 12 -7 19
-8 15 -4 -4 5 -4 13 1 19 7 8 -35 10 -147 8 -87 -1 -161 -2 -167 -2 -174 -2
-459 11 -465 20 -4 7 -9 -13 -12 -43z"/>
<path d="M4324 6491 c5 -7 -2 -9 -24 -5 -16 4 -30 3 -30 -1 0 -4 45 -53 100
-108 85 -85 103 -100 118 -91 33 21 23 42 -58 121 -79 75 -121 109 -106 84z"/>
<path d="M8867 6088 c-17 -13 -62 -220 -66 -300 -1 -16 -12 -18 -92 -18 -68 0
-90 -3 -87 -12 4 -10 125 -14 553 -16 511 -2 585 1 563 23 -3 3 -138 7 -299 8
l-294 2 -2 40 c-2 22 -10 67 -17 100 -8 33 -17 82 -21 110 -4 27 -14 55 -23
62 -23 17 -192 17 -215 1z"/>
<path d="M7820 5539 l0 -350 63 1 c88 2 87 3 87 -25 0 -27 -3 -28 -97 -25
l-53 1 0 -880 0 -881 23 -38 c73 -115 70 -240 -5 -242 -17 0 -18 -35 -18 -590
l0 -590 75 0 c73 0 75 -1 75 -25 0 -27 -3 -28 -97 -25 l-53 1 0 -98 0 -98
-1559 0 -1559 0 -27 79 c-196 563 -729 930 -1324 910 -353 -12 -687 -163 -929
-419 -134 -142 -223 -288 -296 -485 l-31 -85 -580 0 c-560 0 -581 -1 -619 -20
-22 -11 -54 -37 -70 -58 -28 -36 -31 -46 -34 -127 -8 -182 31 -316 113 -397
88 -86 62 -83 790 -83 l632 0 18 -62 c29 -105 103 -240 194 -352 276 -342 750
-493 1171 -371 132 38 293 123 401 211 52 42 96 81 98 88 2 6 10 15 18 19 28
17 136 173 177 257 23 47 51 113 61 148 l18 62 3128 0 3127 0 22 -67 c42 -133
205 -399 237 -388 7 2 10 -2 7 -10 -12 -29 311 -266 338 -249 5 3 8 1 8 -4 0
-13 59 -33 74 -25 6 3 7 2 3 -2 -13 -15 172 -63 289 -76 208 -21 436 24 624
123 82 43 116 67 212 147 9 8 15 18 12 23 -3 4 1 5 9 2 17 -6 70 53 61 68 -4
6 -2 8 3 5 11 -7 67 54 109 116 71 107 144 268 144 319 0 17 23 18 443 18 476
0 503 2 605 54 72 36 140 111 180 194 32 68 35 83 40 191 4 105 2 121 -17 159
-14 28 -35 49 -64 64 -42 23 -44 23 -497 24 -250 0 -461 1 -467 2 -7 1 -13 9
-13 17 0 31 -71 201 -116 279 -301 519 -859 777 -1439 665 -55 -10 -102 -19
-105 -19 -4 0 -5 90 -5 200 1 110 -2 200 -7 200 -4 0 -8 -92 -8 -204 l0 -203
-77 -28 c-261 -94 -502 -284 -660 -520 -72 -107 -173 -326 -173 -374 0 -15
-72 -16 -877 -14 -483 1 -1047 2 -1254 2 l-375 1 2 32 c6 72 5 609 -1 618 -4
6 0 24 9 40 8 17 10 28 5 25 -15 -10 -14 3142 2 3161 7 9 6 19 -5 36 -14 22
-13 26 17 70 33 49 53 62 44 29 -3 -12 11 -3 39 26 24 25 44 47 44 49 0 10
-46 -20 -59 -39 -9 -13 -16 -15 -21 -8 -9 15 -40 3 -40 -16 0 -8 -5 -11 -10
-8 -6 4 -9 3 -8 -2 2 -4 -1 -10 -7 -13 -5 -3 -11 6 -11 20 -1 14 -3 46 -5 71
-1 25 1 50 4 56 4 6 0 19 -9 27 -9 9 -11 16 -4 16 6 0 8 5 5 10 -3 6 -44 10
-91 10 l-84 0 0 -351z m-4205 -3535 c332 -89 554 -381 555 -727 0 -284 -168
-550 -424 -671 -143 -67 -292 -88 -442 -62 -263 45 -482 221 -575 459 -39 102
-52 191 -47 321 8 182 70 329 196 467 101 110 249 193 401 225 82 17 252 11
336 -12z m8356 12 c381 -68 653 -430 609 -812 -29 -262 -183 -482 -415 -594
-339 -164 -725 -61 -945 252 -176 250 -170 612 12 856 177 237 454 349 739
298z"/>
<path d="M3250 1851 c-48 -15 -96 -36 -109 -47 -2 -2 36 -47 85 -100 l89 -96
7 33 c4 19 10 78 14 132 8 112 11 109 -86 78z"/>
<path d="M3500 1858 c0 -7 5 -44 10 -83 5 -38 10 -91 11 -117 2 -27 6 -48 10
-48 4 0 40 37 80 83 40 45 79 87 87 94 19 16 -15 38 -97 63 -73 23 -101 25
-101 8z"/>
<path d="M2974 1672 c-53 -64 -88 -122 -78 -131 5 -5 56 -19 112 -31 57 -11
111 -24 119 -27 10 -4 14 -1 12 9 -5 18 -122 218 -129 218 -3 0 -19 -17 -36
-38z"/>
<path d="M3771 1604 c-34 -58 -61 -109 -59 -113 3 -8 232 40 243 51 10 10
-101 168 -118 168 -3 0 -33 -48 -66 -106z"/>
<path d="M2829 1343 c-2 -81 2 -158 10 -165 3 -4 34 5 66 20 33 16 86 39 118
51 31 13 57 26 57 30 0 7 -229 111 -243 111 -4 0 -8 -21 -8 -47z"/>
<path d="M3883 1338 c-62 -28 -113 -54 -113 -58 0 -9 233 -109 243 -103 8 5
10 174 1 197 -3 9 -9 16 -13 15 -3 0 -57 -23 -118 -51z"/>
<path d="M11646 1845 c-84 -29 -95 -38 -75 -62 62 -73 154 -173 159 -173 4 0
10 39 14 88 4 48 9 106 12 130 6 39 5 42 -17 42 -13 0 -55 -11 -93 -25z"/>
<path d="M11927 1753 c6 -65 12 -124 12 -131 1 -8 5 -12 9 -10 12 5 175 188
171 192 -14 13 -82 41 -124 52 -86 23 -82 30 -68 -103z"/>
<path d="M11383 1666 c-53 -61 -88 -125 -71 -130 35 -12 238 -52 242 -48 3 2
-5 21 -18 41 -13 20 -42 69 -65 109 -23 39 -44 72 -46 72 -2 0 -21 -20 -42
-44z"/>
<path d="M12185 1607 c-67 -113 -75 -133 -52 -124 8 3 62 16 119 27 56 12 107
26 112 31 5 4 -1 24 -13 45 -26 43 -91 124 -100 124 -3 0 -33 -46 -66 -103z"/>
<path d="M11244 1354 c-7 -36 -1 -171 8 -179 3 -3 55 18 116 45 62 28 116 50
122 50 5 0 10 5 10 10 0 6 -5 10 -10 10 -6 0 -60 23 -121 50 -61 28 -112 50
-114 50 -2 0 -7 -16 -11 -36z"/>
<path d="M12355 1362 c-33 -16 -86 -39 -117 -51 -32 -13 -58 -26 -58 -30 0 -3
21 -15 48 -25 26 -11 80 -35 120 -54 40 -19 76 -32 79 -29 10 11 8 196 -3 207
-6 6 -29 1 -69 -18z"/>
<path d="M8410 5652 c0 -4 -24 -8 -52 -8 -57 -2 -76 -5 -95 -17 -8 -5 -13 -3
-13 4 0 13 -60 -51 -60 -64 0 -5 -4 -6 -8 -3 -5 3 -10 0 -12 -7 -1 -7 -4 -385
-7 -842 -3 -806 -3 -831 16 -880 11 -27 20 -46 21 -41 0 5 11 -1 25 -14 14
-13 28 -20 31 -17 4 4 12 0 18 -9 10 -13 77 -14 536 -13 734 2 729 2 723 14
-3 5 0 4 8 -2 16 -16 33 -17 23 -1 -5 7 -3 8 7 2 8 -5 404 -10 914 -11 819 -1
901 0 913 15 16 20 15 43 13 -380 -2 -310 -1 -348 13 -348 9 0 16 3 16 8 0 4
1 184 1 401 1 386 0 394 -20 415 -29 29 -71 83 -71 90 0 3 -14 19 -31 35 -17
16 -32 36 -33 43 -2 12 -34 67 -46 78 -16 15 -60 80 -60 89 0 5 -10 17 -22 25
-12 9 -19 16 -14 16 4 0 -6 18 -23 39 -17 22 -37 50 -44 63 -81 147 -135 197
-186 174 -19 -8 -25 -8 -29 3 -2 7 -22 30 -43 51 -22 21 -39 43 -39 49 0 7 -4
9 -10 6 -5 -3 -10 1 -10 9 0 9 -4 16 -10 16 -5 0 -10 5 -10 11 0 15 -26 39
-34 32 -3 -4 -6 1 -6 10 0 9 -4 17 -10 17 -5 0 -10 7 -10 16 0 8 -4 13 -9 10
-8 -6 -26 21 -23 35 1 4 -12 5 -28 4 -16 -1 -27 1 -24 6 3 5 10 7 15 4 5 -4 9
-2 9 3 0 12 -44 52 -58 52 -7 0 -12 5 -12 11 0 5 6 7 13 3 6 -4 2 3 -11 16
-13 12 -21 28 -18 36 3 9 0 11 -11 7 -12 -5 -15 -2 -10 10 4 10 2 14 -7 11 -7
-3 -18 7 -26 20 -7 14 -17 23 -22 20 -4 -3 -8 1 -8 8 0 8 -16 29 -35 48 -20
19 -40 45 -45 57 -5 13 -22 31 -38 40 -16 10 -30 23 -31 28 -1 6 -15 25 -31
43 -17 19 -30 41 -30 50 0 12 -3 13 -8 5 -5 -8 -14 -1 -27 23 -11 21 -24 33
-32 30 -8 -3 -12 -2 -9 3 9 14 -38 68 -54 63 -13 -5 -13 -3 0 13 9 11 10 16 2
11 -7 -4 -15 0 -19 11 -4 10 -13 23 -21 29 -9 7 -12 16 -7 24 5 9 4 11 -3 6
-15 -9 -70 46 -64 64 3 7 0 10 -7 6 -6 -4 -11 0 -11 10 0 10 -3 14 -6 11 -4
-4 -18 6 -32 21 -13 15 -21 20 -16 12 5 -11 2 -10 -13 3 -11 9 -23 14 -26 10
-4 -3 -7 -1 -7 6 0 8 -8 11 -19 8 -14 -3 -18 -1 -14 9 4 12 -1 13 -25 9 -17
-3 -33 -2 -36 3 -2 4 -255 7 -560 7 -380 -1 -556 2 -556 10 0 7 -3 7 -8 0 -9
-13 -177 -17 -219 -5 -18 4 -33 5 -33 2z m1454 -86 c35 -19 68 -31 71 -27 4 3
5 1 3 -4 -6 -19 72 -104 90 -98 14 4 14 3 3 -5 -12 -9 -12 -13 -2 -26 7 -9 17
-13 22 -10 5 3 8 1 7 -4 -4 -14 212 -263 223 -257 5 3 6 0 4 -7 -3 -7 23 -45
58 -83 34 -39 82 -94 106 -123 37 -45 46 -51 60 -40 14 12 15 11 2 -4 -11 -14
-11 -21 -1 -33 7 -8 16 -12 21 -9 5 3 8 0 7 -8 -2 -7 3 -12 10 -10 6 1 11 -4
10 -10 -2 -7 2 -12 9 -11 7 2 10 -3 8 -10 -2 -6 16 -34 40 -61 37 -42 46 -47
59 -36 10 7 16 8 16 2 0 -6 -6 -13 -12 -16 -9 -3 -6 -11 11 -25 13 -12 20 -21
16 -21 -3 0 0 -6 7 -14 14 -14 68 -79 112 -132 16 -19 26 -44 26 -63 0 -20 5
-31 14 -31 22 0 25 -21 25 -207 0 -161 -2 -172 -21 -190 -12 -10 -18 -12 -13
-4 6 10 4 12 -6 5 -23 -14 -51 -16 -43 -2 5 7 3 8 -7 2 -21 -13 -39 -14 -39
-1 0 8 -3 8 -8 2 -10 -14 -43 -15 -35 -1 3 6 0 6 -8 -1 -17 -17 -32 -17 -23 0
6 9 4 9 -8 -1 -14 -11 -17 -10 -21 10 -2 13 -5 -10 -6 -51 -2 -103 7 -111 116
-111 l83 0 0 -27 c0 -54 -1 -54 -169 -53 -189 1 -658 1 -814 -1 -76 -1 -141 2
-144 5 -4 3 37 6 90 6 54 0 97 3 97 8 0 4 -354 7 -787 6 -434 0 -805 3 -825 6
-76 14 -96 60 -93 210 1 71 -2 120 -9 129 -7 10 -7 13 -1 9 8 -5 11 200 10
670 0 476 3 687 11 712 6 20 25 44 44 58 l33 22 753 0 753 0 65 -34z"/>
<path d="M10129 5553 c-12 -14 -12 -16 0 -8 11 6 13 4 8 -9 -4 -9 -3 -15 2
-12 4 3 34 -23 65 -59 32 -35 70 -77 84 -93 26 -27 116 -127 232 -258 60 -68
65 -71 73 -49 4 8 -8 28 -26 47 -28 30 -64 69 -222 247 -22 25 -51 57 -65 72
-14 15 -47 53 -74 83 -27 31 -53 56 -57 56 -3 0 -13 -8 -20 -17z"/>
<path d="M2074 5102 c-105 -2 -155 -6 -162 -15 -12 -16 -25 -117 -14 -117 4 0
14 6 21 13 11 10 12 9 6 -2 -6 -10 -4 -13 7 -9 8 4 15 0 15 -7 0 -10 -5 -11
-17 -5 -38 21 -42 1 -38 -193 5 -206 10 -223 61 -213 52 10 57 21 57 112 0
110 13 126 103 123 87 -3 107 -1 107 12 0 6 -7 8 -16 5 -9 -3 -12 -2 -9 4 4 6
14 9 23 8 22 -4 27 31 8 57 -12 17 -28 21 -103 24 -94 3 -113 11 -113 45 0 39
19 46 118 46 72 0 91 3 86 13 -6 9 -3 8 8 -1 22 -18 58 1 59 31 4 74 5 73
-207 69z"/>
<path d="M2578 5105 c-2 -2 -19 -5 -38 -8 -36 -4 -100 -32 -100 -43 0 -4 7 -3
16 0 9 3 12 2 9 -5 -4 -6 -14 -8 -22 -5 -18 7 -84 -57 -101 -99 -27 -68 -31
-115 -15 -178 20 -78 40 -120 55 -111 6 4 8 3 5 -3 -7 -11 53 -62 94 -80 81
-35 201 -24 269 25 66 48 128 132 98 132 -10 0 -10 2 1 9 7 5 10 14 7 20 -4 6
-2 11 3 11 7 0 11 23 11 56 0 68 -35 158 -58 149 -12 -4 -12 -2 -4 8 14 17
-14 44 -90 86 -45 24 -129 46 -140 36z m41 -82 c-1 -5 -1 -16 0 -27 1 -16 3
-17 19 -5 9 7 14 9 10 5 -9 -10 53 -46 66 -38 5 3 6 0 2 -7 -4 -6 1 -23 12
-39 62 -88 11 -214 -99 -243 -39 -10 -52 -10 -93 6 -54 21 -81 51 -97 107 -16
61 -3 110 41 157 38 40 77 58 114 52 13 -2 17 2 13 12 -3 8 -3 18 0 21 8 8 13
8 12 -1z"/>
<path d="M3210 5099 c-30 -3 -68 -11 -85 -18 -37 -15 -76 -51 -69 -63 3 -5 2
-8 -3 -7 -23 4 -35 -2 -29 -17 3 -8 2 -13 -3 -10 -10 7 -33 -20 -48 -54 -13
-33 -17 -201 -4 -180 7 11 10 6 9 -17 -1 -37 27 -79 79 -119 57 -44 75 -51
146 -58 66 -7 152 8 141 25 -3 5 1 6 9 3 8 -3 26 6 41 19 14 13 37 32 50 43
28 20 51 67 42 83 -3 5 -1 11 5 13 6 2 13 33 16 70 9 106 -40 194 -139 252
-62 36 -92 43 -158 35z m47 -114 c74 -9 119 -51 134 -127 11 -53 10 -59 -16
-107 -30 -54 -88 -91 -142 -91 -53 1 -116 41 -140 90 -41 79 -29 136 40 206
35 34 49 37 124 29z"/>
<path d="M3628 5096 c-27 -13 -25 -1 -30 -297 -4 -266 -11 -253 152 -247 106
5 119 7 171 36 73 42 95 67 119 135 40 113 21 207 -59 290 -60 64 -111 84
-228 89 -66 3 -111 1 -125 -6z m219 -99 c7 0 10 -3 8 -7 -2 -4 13 -21 35 -39
47 -38 67 -91 54 -148 -4 -21 -8 -44 -7 -50 0 -7 -3 -10 -8 -7 -5 3 -9 1 -9
-5 0 -6 -21 -26 -46 -46 -37 -28 -56 -35 -90 -35 -64 0 -73 18 -75 167 -1 67
2 126 5 131 3 6 5 16 3 24 -2 7 -2 11 0 8 1 -3 26 -3 54 -1 38 2 48 6 38 13
-10 7 -9 8 6 3 11 -4 25 -8 32 -8z"/>
<path d="M4430 5103 c-53 -7 -68 -13 -73 -32 -2 -11 0 -25 7 -32 8 -9 8 -10
-1 -5 -7 4 -13 3 -13 -1 0 -18 25 -33 52 -33 41 0 84 -25 92 -52 3 -13 6 -101
6 -195 0 -171 0 -173 24 -188 30 -20 75 -10 85 19 4 11 6 96 5 187 -3 156 -2
169 17 193 16 20 29 26 58 26 44 0 71 24 71 62 0 46 -21 53 -169 53 -75 1
-147 -1 -161 -2z"/>
<path d="M4861 5084 c-21 -26 -26 -68 -15 -111 4 -13 11 -20 17 -16 6 3 7 1 3
-6 -4 -6 -11 -9 -16 -6 -11 7 -6 -171 5 -197 4 -12 3 -18 -5 -18 -21 0 -6
-151 16 -167 24 -17 45 -16 73 3 19 14 22 24 20 63 -5 94 0 121 20 121 10 0
29 -8 42 -19 22 -17 24 -17 37 -2 11 14 11 12 1 -8 -11 -23 -6 -29 66 -98 50
-47 85 -73 100 -73 22 0 65 41 65 62 0 13 -118 138 -122 128 -5 -14 -32 -16
-34 -2 -1 6 -2 17 -3 23 0 5 -7 7 -13 3 -7 -4 -10 -4 -6 1 4 4 3 14 -3 22 -6
7 -7 13 -2 13 5 0 15 -11 23 -24 8 -16 19 -23 33 -20 27 5 58 34 50 47 -3 6
-1 7 5 3 6 -4 22 10 36 31 20 29 26 50 26 94 0 49 -4 61 -36 102 -47 61 -101
77 -252 77 -107 0 -111 -1 -131 -26z m306 -145 c10 -51 -17 -69 -102 -69 -80
0 -100 12 -109 65 -2 17 -5 32 -5 34 -1 2 -9 -3 -18 -10 -16 -13 -17 -12 -4 3
7 10 17 16 21 13 5 -3 11 -1 15 5 3 5 40 10 81 10 43 0 74 4 74 10 0 21 41
-32 47 -61z"/>
<path d="M6529 5096 c-24 -11 -24 -14 -26 -164 -1 -115 1 -151 10 -146 8 5 8
3 0 -7 -14 -14 -18 -186 -5 -205 14 -22 52 -26 77 -10 21 14 25 24 25 67 0 27
7 64 16 80 13 26 20 30 49 28 25 -3 39 2 53 19 10 12 22 19 26 15 3 -3 6 2 7
13 0 12 3 14 6 6 3 -8 -9 -26 -28 -41 l-33 -28 39 -49 c68 -85 108 -124 130
-124 23 0 55 28 55 49 0 23 -31 72 -80 126 -100 110 -100 123 -9 211 87 84
101 120 61 152 -33 26 -57 12 -152 -83 -52 -52 -102 -95 -111 -95 -21 0 -29
29 -29 106 0 37 -5 65 -12 71 -24 18 -45 21 -69 9z"/>
<path d="M5380 5076 c-9 -18 -11 -69 -8 -200 l4 -176 31 -42 c38 -54 96 -95
146 -103 50 -9 134 3 152 22 8 8 15 11 15 7 0 -18 91 82 100 110 5 17 12 104
15 194 6 188 -1 212 -61 212 -18 0 -36 -5 -40 -11 -13 -22 -16 -296 -4 -319 8
-15 8 -20 1 -16 -6 4 -11 1 -11 -7 0 -15 -44 -59 -77 -76 -50 -26 -123 0 -138
49 -4 11 -11 18 -16 14 -5 -3 -9 -2 -8 3 1 4 1 13 0 18 -1 6 -2 79 -1 163 1
169 -3 182 -55 182 -23 0 -35 -6 -45 -24z"/>
<path d="M6084 5081 c-49 -22 -114 -78 -114 -98 0 -8 4 -12 8 -9 5 3 9 -1 9
-9 0 -12 -4 -12 -20 2 -11 10 -17 12 -13 6 4 -7 3 -13 -2 -13 -5 0 -15 -20
-22 -45 -16 -56 -7 -173 16 -217 23 -45 76 -99 91 -94 7 3 12 1 10 -3 -1 -5 2
-9 7 -9 5 0 12 -6 16 -12 4 -7 25 -14 46 -17 22 -2 53 -6 69 -9 40 -6 121 10
118 24 -2 6 3 9 10 7 7 -3 29 9 50 26 29 24 37 37 37 64 0 62 -50 69 -120 16
-50 -37 -132 -37 -182 1 -19 15 -41 40 -48 57 -7 17 -17 28 -22 25 -5 -4 -5
-10 0 -17 14 -18 11 -49 -3 -37 -7 5 -14 9 -16 7 -2 -1 -3 0 -2 2 1 2 -2 11
-7 21 -7 13 -4 22 9 34 10 9 18 30 19 46 0 17 10 46 22 65 12 19 18 40 14 47
-4 7 -4 10 1 6 4 -4 22 3 39 15 17 12 34 23 39 23 4 1 8 2 10 3 1 2 20 3 42 4
38 2 105 -25 105 -43 0 -17 58 -32 78 -21 45 24 39 75 -13 115 -75 57 -200 74
-281 37z"/>
<path d="M10824 4788 c-4 -6 1 -17 11 -25 11 -7 16 -13 12 -13 -3 0 17 -24 46
-54 29 -30 62 -67 74 -83 12 -15 44 -51 70 -79 26 -28 77 -84 113 -124 36 -40
78 -87 93 -104 36 -39 94 -127 107 -162 8 -21 13 -24 24 -14 32 26 -33 120
-239 345 -40 44 -88 98 -106 120 -19 21 -55 62 -80 90 -26 27 -59 65 -74 83
-29 34 -40 39 -51 20z"/>
<path d="M2062 4391 c1 -17 6 -31 12 -31 7 0 7 -3 1 -8 -14 -10 -14 -103 -1
-99 6 2 11 15 11 28 0 38 38 37 66 0 13 -17 29 -31 36 -31 9 0 7 9 -9 30 l-22
30 21 15 c23 16 25 57 5 77 -6 6 -36 13 -66 16 l-55 4 1 -31z"/>
<path d="M3424 4336 c-1 -85 11 -114 22 -57 9 43 36 45 64 5 12 -19 29 -34 37
-34 10 0 8 8 -9 30 l-22 30 21 15 c22 15 25 57 6 76 -6 6 -35 13 -64 16 l-54
5 -1 -86z"/>
<path d="M4583 4410 c-50 -20 -60 -105 -17 -139 88 -69 198 46 119 124 -25 26
-62 31 -102 15z"/>
<path d="M4815 4396 c-31 -31 -29 -100 5 -128 45 -37 119 -14 139 43 6 17 6
29 1 29 -5 0 -7 7 -4 15 3 8 -6 25 -22 40 -36 33 -86 34 -119 1z"/>
<path d="M5050 4336 l0 -82 50 -3 c31 -1 50 2 50 9 0 6 4 9 9 5 15 -9 41 37
41 72 0 36 -28 72 -57 74 -10 1 -35 2 -55 4 l-38 3 0 -82z"/>
<path d="M8254 3506 c-36 -16 -44 -37 -44 -122 0 -51 4 -64 23 -82 23 -22 27
-22 324 -20 198 2 299 0 296 -7 -3 -5 12 7 32 29 23 23 33 41 27 45 -6 4 -7
12 -3 20 16 26 1 105 -25 129 -27 23 -44 28 -44 12 0 -5 6 -10 14 -10 44 0 55
-90 15 -122 -19 -16 -50 -18 -308 -18 -275 0 -288 1 -309 20 -14 14 -22 33
-22 55 0 34 5 41 45 70 25 18 19 18 -21 1z"/>
<path d="M1213 3469 c11 -16 24 -26 29 -23 5 3 7 2 6 -3 -2 -5 3 -15 10 -23 6
-8 21 -26 32 -40 16 -20 19 -21 13 -5 -3 11 -10 26 -16 33 -5 6 -6 12 -1 13 5
0 0 4 -11 9 -19 8 -19 9 3 9 12 1 22 -4 22 -10 0 -5 5 -7 11 -3 9 5 10 -1 5
-20 -4 -18 -3 -25 4 -21 5 3 11 21 11 38 1 18 3 24 6 15 2 -10 9 -18 14 -18 6
0 7 5 3 12 -4 7 -3 8 5 4 6 -4 9 -18 7 -31 -3 -16 0 -22 11 -21 20 3 37 33 23
41 -6 4 -10 3 -9 -2 3 -20 -2 -34 -11 -28 -7 4 -6 13 1 27 8 14 14 17 22 9 7
-7 15 -7 26 2 10 8 13 8 8 0 -8 -12 10 -12 31 1 7 4 12 4 11 -1 -3 -20 2 -27
11 -13 7 11 10 11 10 2 0 -8 5 -10 13 -6 8 5 8 2 -2 -9 -13 -17 -26 -24 -17
-9 2 4 -14 7 -37 7 -27 0 -42 -5 -44 -15 -4 -12 -3 -13 5 -1 8 11 10 11 15 0
4 -11 6 -11 6 -1 1 8 6 10 14 5 14 -9 207 -12 207 -3 0 3 -6 12 -12 20 -11 12
-10 12 4 2 13 -10 17 -10 22 0 3 7 4 4 1 -7 -4 -15 0 -21 15 -22 22 -2 35 12
20 22 -5 3 -10 1 -10 -6 0 -7 -3 -10 -6 -6 -3 3 -3 11 1 17 5 8 11 8 21 -1 7
-6 12 -15 9 -19 -3 -4 14 -7 38 -6 23 0 41 4 40 9 -2 4 -3 10 -3 15 0 4 -5 0
-10 -8 -6 -9 -10 -10 -10 -3 0 6 4 14 9 17 10 7 34 -18 25 -26 -3 -3 14 -5 38
-4 24 0 42 4 41 9 -2 4 -3 10 -3 15 0 4 -5 0 -10 -8 -5 -8 -10 -10 -10 -4 0 6
3 14 7 17 8 9 34 -13 28 -23 -3 -4 14 -7 38 -6 23 0 41 4 40 9 -2 4 -3 10 -3
15 0 4 -5 0 -10 -8 -5 -8 -10 -10 -10 -4 0 6 3 14 7 17 8 9 34 -13 28 -23 -3
-4 14 -7 38 -6 23 0 41 4 40 9 -2 4 -3 10 -3 15 0 4 -5 0 -10 -8 -5 -8 -10
-10 -10 -4 0 6 3 14 7 17 8 9 34 -13 28 -23 -3 -4 14 -7 38 -6 23 0 41 4 40 9
-2 4 -3 10 -3 15 0 4 -5 0 -10 -8 -6 -9 -10 -10 -10 -3 0 6 4 14 9 17 10 7 34
-18 25 -26 -3 -3 14 -5 38 -4 24 0 42 4 41 9 -2 4 -3 10 -3 15 0 4 -5 0 -10
-8 -6 -9 -10 -10 -10 -3 0 6 4 14 9 17 11 7 33 -18 24 -27 -3 -4 -2 -7 4 -7
18 0 23 13 10 29 -11 14 -10 14 6 2 13 -11 17 -11 17 -1 0 8 3 10 6 7 4 -4 2
-12 -4 -20 -6 -7 -7 -19 -3 -26 6 -9 10 -6 16 11 4 12 7 27 6 31 -1 5 3 6 9 2
6 -3 7 -12 3 -18 -11 -17 -13 -37 -4 -37 5 0 13 15 19 33 7 17 10 22 8 9 -3
-15 0 -22 7 -19 7 3 11 10 9 16 -1 7 2 10 7 7 9 -6 59 37 90 77 14 18 -9 18
-631 16 l-646 -2 21 -28z"/>
<path d="M2764 3479 c-18 -20 -18 -21 14 -50 18 -17 32 -35 32 -40 0 -6 5 -7
10 -4 6 4 7 11 4 17 -5 7 -2 8 5 4 7 -5 10 -14 7 -22 -3 -8 0 -11 9 -8 8 3 11
12 8 20 -4 10 0 12 13 8 11 -4 25 -12 32 -17 9 -7 11 -6 7 4 -4 11 7 14 55 12
33 -1 62 3 66 8 8 13 24 1 18 -14 -3 -9 12 -13 55 -13 53 -1 59 1 56 18 -2 10
0 16 6 13 5 -4 7 -10 4 -15 -3 -5 -1 -11 5 -15 6 -3 10 4 11 17 1 21 1 21 7 3
7 -20 33 -29 31 -10 -1 6 -5 9 -11 7 -5 -1 -7 2 -3 8 5 8 11 8 21 -1 7 -6 12
-15 9 -19 -2 -4 20 -7 49 -7 47 1 54 3 51 19 -2 10 0 16 6 13 5 -4 7 -10 4
-15 -3 -5 -1 -11 5 -15 6 -3 10 4 11 17 1 21 1 21 7 3 7 -20 33 -29 31 -10 -1
6 -5 9 -11 7 -5 -1 -7 2 -3 8 5 8 11 8 21 -1 7 -6 12 -15 9 -19 -2 -4 20 -7
49 -7 47 1 54 3 51 19 -2 10 0 16 6 13 5 -4 7 -10 4 -15 -3 -5 -1 -11 5 -15 6
-3 10 4 11 17 1 21 1 21 7 3 7 -20 33 -29 31 -10 -1 6 -5 9 -11 7 -5 -1 -7 2
-3 8 5 8 11 8 21 -1 7 -6 12 -15 9 -19 -2 -4 20 -7 49 -7 47 1 54 3 51 19 -2
10 0 16 6 13 5 -4 7 -10 4 -15 -3 -5 -1 -11 5 -15 6 -3 10 4 11 17 1 21 1 21
7 3 7 -20 34 -29 30 -10 -2 6 -7 9 -11 7 -5 -1 -6 2 -2 8 5 8 11 8 21 -1 7 -6
11 -15 8 -20 -3 -5 10 -8 28 -7 25 2 32 -1 30 -12 -3 -11 1 -10 16 3 13 12 22
15 27 7 7 -12 25 -4 25 11 0 6 -5 7 -12 3 -6 -4 -3 5 8 19 10 15 25 27 31 27
7 0 18 9 25 20 7 11 18 20 25 20 7 0 13 5 13 10 0 7 -208 10 -603 10 -597 0
-604 0 -623 -21z"/>
<path d="M4227 3473 c35 -57 56 -74 83 -68 17 4 21 3 11 -4 -11 -7 -10 -11 6
-19 15 -8 23 -8 32 1 7 7 16 13 22 13 22 3 23 5 9 15 -13 9 -13 10 0 6 8 -2
14 -11 12 -19 -2 -12 8 -15 40 -15 24 0 51 -3 61 -8 33 -14 18 22 -31 74 l-48
51 -107 0 -107 0 17 -27z"/>
<path d="M4510 3436 c40 -39 70 -62 79 -58 10 4 12 1 6 -9 -6 -9 -2 -8 11 3
10 9 22 17 27 17 4 1 6 4 5 9 -2 4 -7 6 -11 4 -5 -1 -6 2 -2 8 5 8 11 8 21 -1
7 -6 12 -15 9 -19 -2 -4 20 -7 49 -7 47 1 54 3 51 19 -2 10 0 16 6 13 5 -4 7
-10 4 -15 -3 -5 -1 -11 5 -15 6 -3 10 4 11 17 1 21 1 21 7 3 7 -20 34 -29 30
-10 -2 6 -7 9 -11 7 -5 -1 -6 2 -2 8 5 8 11 8 21 -1 7 -6 12 -15 9 -19 -2 -4
20 -7 49 -7 47 1 54 3 51 19 -2 10 0 16 6 13 5 -4 7 -10 4 -15 -3 -5 -1 -11 5
-15 6 -3 10 4 11 17 1 21 1 21 7 3 7 -20 33 -29 31 -10 -1 6 -5 9 -11 7 -5 -1
-7 2 -3 8 5 8 11 8 21 -1 7 -6 12 -15 9 -19 -2 -4 20 -7 49 -7 47 1 54 3 51
19 -2 10 0 16 6 13 5 -4 7 -10 4 -15 -3 -5 -1 -11 5 -15 6 -3 10 4 11 17 1 21
1 21 7 3 7 -20 33 -29 31 -10 -1 6 -5 9 -11 7 -5 -1 -7 2 -3 8 5 8 11 8 21 -1
7 -6 12 -15 9 -19 -2 -4 20 -7 49 -7 47 1 54 3 51 19 -2 10 0 16 6 13 5 -4 7
-10 4 -15 -3 -5 -1 -11 5 -15 6 -3 10 4 11 17 1 21 1 21 7 3 7 -20 34 -29 30
-10 -2 6 -7 9 -11 7 -5 -1 -6 2 -2 8 5 8 11 8 21 -1 7 -6 12 -15 9 -19 -2 -4
20 -7 49 -7 47 1 54 3 51 19 -2 10 0 16 6 13 5 -4 7 -10 4 -15 -3 -5 -1 -11 5
-15 6 -3 10 4 11 17 1 21 1 21 7 3 7 -20 34 -29 30 -10 -2 6 -7 9 -11 7 -5 -1
-6 2 -2 8 5 8 11 8 21 -1 7 -6 11 -16 8 -21 -4 -6 7 -8 29 -5 20 3 37 1 39 -4
2 -4 32 21 67 57 l64 64 -654 0 -654 0 65 -64z"/>
<path d="M6034 3479 c-19 -21 -19 -21 14 -48 17 -15 32 -35 32 -45 0 -25 20
-9 21 17 0 21 1 21 9 2 5 -14 2 -26 -9 -40 -15 -18 -15 -19 1 -6 9 7 22 10 27
6 7 -4 8 1 4 12 -3 10 -3 15 2 11 4 -4 15 -2 23 5 12 9 14 9 9 0 -9 -14 44
-14 54 0 9 13 167 14 162 1 -2 -7 8 -11 27 -10 16 1 29 6 28 11 -2 6 -7 9 -11
7 -5 -1 -6 2 -2 8 5 8 11 8 21 -1 7 -6 12 -15 9 -19 -3 -4 13 -7 35 -6 22 0
40 4 40 9 0 4 0 10 0 15 0 4 -5 0 -10 -8 -6 -9 -10 -10 -10 -3 0 6 4 14 9 17
10 7 34 -18 25 -26 -3 -3 14 -5 38 -4 24 0 42 4 41 9 -2 4 -3 10 -3 15 0 4 -5
0 -10 -8 -6 -9 -10 -10 -10 -3 0 19 17 24 29 9 6 -7 9 -15 6 -18 -3 -3 17 -5
45 -4 46 0 55 6 51 29 -1 5 3 6 8 2 6 -3 8 -12 5 -19 -4 -9 4 -13 26 -12 16 1
30 6 29 11 -1 6 -5 9 -11 7 -5 -1 -7 2 -3 8 5 8 11 8 21 -1 7 -6 12 -15 9 -19
-3 -4 15 -8 40 -7 43 1 53 6 38 20 -3 4 -12 2 -19 -4 -13 -10 -32 6 -20 18 3
4 6 1 6 -7 0 -10 3 -10 14 -1 11 9 17 8 28 -7 13 -18 88 -29 88 -12 0 14 -14
19 -26 9 -13 -10 -32 6 -20 18 3 4 6 1 6 -7 0 -10 3 -10 14 -1 11 9 17 8 28
-8 8 -12 18 -18 21 -14 4 3 2 11 -3 18 -7 8 -5 12 4 12 8 0 13 -8 11 -18 -3
-15 2 -17 30 -15 18 2 38 6 43 10 6 3 12 1 14 -6 3 -7 10 -8 17 -4 10 7 10 10
1 16 -8 5 -8 9 3 13 11 4 15 0 12 -14 -2 -10 -7 -25 -11 -32 -4 -6 2 -4 14 6
11 11 18 25 15 33 -3 8 -1 14 4 14 5 0 29 18 53 40 l43 40 -605 0 c-603 0
-605 0 -624 -21z"/>
<path d="M1100 3053 c0 -4 14 -22 32 -40 18 -18 27 -33 22 -33 -6 0 -25 16
-44 35 -19 19 -40 35 -47 35 -15 0 -18 -16 -4 -24 5 -3 11 -14 14 -25 3 -15
-1 -18 -21 -18 -16 0 -35 -11 -49 -28 -23 -26 -24 -30 -23 -242 1 -118 4 -221
7 -229 4 -10 23 -14 63 -14 90 0 92 -5 88 -200 -4 -188 -4 -190 -99 -190 l-57
0 -1 -67 -1 -66 47 -43 c45 -42 47 -42 60 -24 8 11 21 20 30 20 13 0 12 -5 -7
-25 -13 -14 -21 -27 -18 -30 2 -3 15 6 28 20 23 24 28 25 164 27 98 1 123 3
81 7 -67 7 -54 21 20 21 30 0 45 -5 49 -16 5 -14 8 -14 21 0 8 8 15 19 15 25
0 6 4 11 9 11 5 0 10 76 11 172 0 95 3 174 5 177 3 2 -4 15 -16 27 -19 21 -20
24 -5 47 14 20 16 63 17 283 1 276 0 283 -20 308 -7 9 -11 16 -7 16 3 0 -2 9
-11 19 -9 11 -20 18 -25 15 -4 -3 -8 0 -8 6 0 6 -4 9 -9 6 -5 -3 -11 1 -14 9
-6 13 -25 18 -104 29 -27 3 -33 1 -33 -14 0 -10 -12 -27 -28 -38 l-27 -20 -35
30 c-41 35 -70 52 -70 41z"/>
</g>
</svg>
