<?xml version="1.0" encoding="iso-8859-1"?>
<!-- Uploaded to: SVG Repo, www.svgrepo.com, Generator: SVG Repo Mixer Tools -->
<svg version="1.1" id="Layer_1" xmlns="http://www.w3.org/2000/svg" xmlns:xlink="http://www.w3.org/1999/xlink" 
	 viewBox="0 0 512 512" xml:space="preserve">
<path style="fill:#D6E5F6;" d="M393.988,0H118.012c-11.431,0-20.698,9.266-20.698,20.698v82.793
	c0,11.431,9.267,20.698,20.698,20.698h275.977c11.431,0,20.698-9.267,20.698-20.698V20.698C414.687,9.266,405.419,0,393.988,0z"/>
<path style="fill:#A4C6EC;" d="M393.988,0H256v124.189h137.988c11.431,0,20.698-9.267,20.698-20.698V20.698
	C414.687,9.266,405.419,0,393.988,0z"/>
<path style="fill:#D8145D;" d="M496.162,206.712L454.765,96.321c-3.029-8.078-10.752-13.429-19.38-13.429H76.615
	c-8.628,0-16.352,5.351-19.38,13.429L15.838,206.712c-4.014,10.704,1.41,22.636,12.113,26.648
	c10.704,4.014,22.633-1.409,26.647-12.111l2.725-7.268h397.352l2.725,7.268c3.116,8.31,11.003,13.435,19.383,13.435
	c2.415,0,4.871-0.426,7.265-1.323C494.751,229.348,500.176,217.416,496.162,206.712z"/>
<polyline style="fill:#D6E5F6;" points="435.385,296.773 435.385,491.302 76.615,491.302 76.615,296.773 "/>
<rect x="283.594" y="296.771" style="fill:#A4C6EC;" width="151.787" height="194.522"/>
<path style="fill:#1D3366;" d="M435.385,276.075c-11.431,0-20.698,9.269-20.698,20.698v173.831H304.296V296.773
	c0-11.43-9.267-20.698-20.698-20.698s-20.698,9.269-20.698,20.698v91.038H97.313v-91.038c0-11.43-9.267-20.698-20.698-20.698
	s-20.698,9.269-20.698,20.698v194.529c0,11.432,9.267,20.698,20.698,20.698h358.77c11.431,0,20.698-9.266,20.698-20.698V296.773
	C456.083,285.343,446.816,276.075,435.385,276.075z M97.313,429.207h165.586v41.396H97.313L97.313,429.207L97.313,429.207z"/>
<path style="fill:#D8145D;" d="M496.162,206.712L454.765,96.321c-3.029-8.078-10.752-13.429-19.38-13.429H256v131.089h198.676
	l2.725,7.268c3.116,8.31,11.003,13.435,19.383,13.435c2.415,0,4.871-0.426,7.265-1.323
	C494.751,229.348,500.176,217.416,496.162,206.712z"/>
<g>
	<path style="fill:#A90140;" d="M476.781,193.283H35.219c-11.431,0-20.698,9.267-20.698,20.698v82.792
		c0,11.432,9.267,20.698,20.698,20.698h441.563c11.431,0,20.698-9.266,20.698-20.698v-82.792
		C497.48,202.55,488.212,193.283,476.781,193.283z"/>
	<path style="fill:#A90140;" d="M476.781,193.283H256v124.188h220.781c11.431,0,20.698-9.266,20.698-20.698v-82.792
		C497.48,202.55,488.212,193.283,476.781,193.283z"/>
</g>
</svg>